<svg xmlns="http://www.w3.org/2000/svg" width="21" height="20" viewBox="0 0 21 20" fill="none"><path d="M18.98 15.2753C18.98 15.5753 18.9134 15.8837 18.7717 16.1837C18.63 16.4837 18.4467 16.767 18.205 17.0337C17.7967 17.4837 17.3467 17.8087 16.8384 18.017C16.3384 18.2253 15.7967 18.3337 15.2134 18.3337C14.3634 18.3337 13.455 18.1337 12.4967 17.7253C11.5384 17.317 10.58 16.767 9.63005 16.0753C8.67171 15.3753 7.76338 14.6003 6.89671 13.742C6.03838 12.8753 5.26338 11.967 4.57171 11.017C3.88838 10.067 3.33838 9.11699 2.93838 8.17533C2.53838 7.22533 2.33838 6.31699 2.33838 5.45033C2.33838 4.88366 2.43838 4.34199 2.63838 3.84199C2.83838 3.33366 3.15505 2.86699 3.59671 2.45033C4.13005 1.92533 4.71338 1.66699 5.33005 1.66699C5.56338 1.66699 5.79671 1.71699 6.00505 1.81699C6.22171 1.91699 6.41338 2.06699 6.56338 2.28366L8.49671 5.00866C8.64671 5.21699 8.75505 5.40866 8.83005 5.59199C8.90505 5.76699 8.94671 5.94199 8.94671 6.10033C8.94671 6.30033 8.88838 6.50033 8.77171 6.69199C8.66338 6.88366 8.50505 7.08366 8.30505 7.28366L7.67171 7.94199C7.58005 8.03366 7.53838 8.14199 7.53838 8.27533C7.53838 8.34199 7.54671 8.40033 7.56338 8.46699C7.58838 8.53366 7.61338 8.58366 7.63005 8.63366C7.78005 8.90866 8.03838 9.26699 8.40505 9.70033C8.78005 10.1337 9.18005 10.5753 9.61338 11.017C10.0634 11.4587 10.4967 11.867 10.9384 12.242C11.3717 12.6087 11.73 12.8587 12.0134 13.0087C12.055 13.0253 12.105 13.0503 12.1634 13.0753C12.23 13.1003 12.2967 13.1087 12.3717 13.1087C12.5134 13.1087 12.6217 13.0587 12.7134 12.967L13.3467 12.342C13.555 12.1337 13.755 11.9753 13.9467 11.8753C14.1384 11.7587 14.33 11.7003 14.5384 11.7003C14.6967 11.7003 14.8634 11.7337 15.0467 11.8087C15.23 11.8837 15.4217 11.992 15.63 12.1337L18.3884 14.092C18.605 14.242 18.755 14.417 18.8467 14.6253C18.93 14.8337 18.98 15.042 18.98 15.2753Z" fill="white"></path></svg>