<svg xmlns="http://www.w3.org/2000/svg" width="21" height="20" viewBox="0 0 21 20" fill="none"><g clip-path="url(#clip0_2001_12298)"><path d="M17.8553 7.04134C16.9803 3.19134 13.622 1.45801 10.672 1.45801C10.672 1.45801 10.672 1.45801 10.6636 1.45801C7.72195 1.45801 4.35529 3.18301 3.48029 7.03301C2.50529 11.333 5.13862 14.9747 7.52195 17.2663C8.40529 18.1163 9.53862 18.5413 10.672 18.5413C11.8053 18.5413 12.9386 18.1163 13.8136 17.2663C16.197 14.9747 18.8303 11.3413 17.8553 7.04134ZM10.672 11.2163C9.22195 11.2163 8.04695 10.0413 8.04695 8.59134C8.04695 7.14134 9.22195 5.96634 10.672 5.96634C12.122 5.96634 13.297 7.14134 13.297 8.59134C13.297 10.0413 12.122 11.2163 10.672 11.2163Z" fill="white"></path></g><defs><clipPath id="clip0_2001_12298"><rect width="20" height="20" fill="white" transform="translate(0.671875)"></rect></clipPath></defs></svg>