<svg xmlns="http://www.w3.org/2000/svg" xmlns:xlink="http://www.w3.org/1999/xlink" fill="none" height="33" viewBox="0 0 26 33" width="26"><clipPath id="a"><path d="m0 0h26v33h-26z"></path></clipPath><g clip-path="url(#a)"><path d="m1 12c0-6.07513 4.92487-11 11-11h2c6.0751 0 11 4.92487 11 11v9c0 6.0751-4.9249 11-11 11h-2c-6.07513 0-11-4.9249-11-11z" fill="#fff"></path><g fill="#070707"><path clip-rule="evenodd" d="m.5 12c0-6.35127 5.14873-11.5 11.5-11.5h2c6.3513 0 11.5 5.14873 11.5 11.5v9c0 6.3513-5.1487 11.5-11.5 11.5h-2c-6.35127 0-11.5-5.1487-11.5-11.5zm11.5-10.5c-5.79899 0-10.5 4.70101-10.5 10.5v9c0 5.799 4.70101 10.5 10.5 10.5h2c5.799 0 10.5-4.701 10.5-10.5v-9c0-5.79899-4.701-10.5-10.5-10.5z" fill-rule="evenodd"></path><path d="m13.5 18.793v-6.793h-1v6.7929l-2.1464-2.1464-.70712.7071 3.35352 3.3535 3.3536-3.3535-.7071-.7071z"></path></g></g></svg>