<svg xmlns="http://www.w3.org/2000/svg" fill="none" height="20" viewBox="0 0 20 20" width="20"><path clip-rule="evenodd" d="m9.44287 14.739c-.96331.2257-2.05758.1963-3.14295-.1253-1.9303-.5719-3.41733-1.9546-3.81884-3.5388-.74958-.6945-1.21985-1.68878-1.21985-2.79244 0-2.10207 1.70407-3.80614 3.80614-3.80614.13793 0 .27427.00736.40863.02172.22087-.50073.49099-.96216.80304-1.37309.92246-1.2148 2.23307-2.01022 3.72045-2.01094h.00201c1.4874.00072 2.798.79614 3.7204 2.01094.3121.41091.5822.8723.803 1.37299.1341-.01429.2701-.02162.4077-.02162 2.1021 0 3.8062 1.70407 3.8062 3.80614 0 1.1036-.4703 2.09774-1.2198 2.79234-.4015 1.5842-1.8884 2.9668-3.8188 3.5388-1.1283.3343-2.2666.3529-3.2573.0971v3.6229c0 .2762-.2239.5-.50003.5-.27614 0-.5-.2238-.5-.5zm-2.36742-11.0093c-.7789 1.02573-1.27516 2.46492-1.27516 4.07535 0 .69344.0921 1.35633.25979 1.96863.2158.03987.4323.09165.6483.15565 1.44097.42697 2.62352 1.33387 3.26699 2.44437.65203-1.1046 1.83923-2.0067 3.28273-2.43444.2272-.06733.455-.12132.6819-.16233.1683-.6132.2607-1.2772.2607-1.97188 0-1.61043-.4963-3.04962-1.2752-4.07535-.7784-1.02506-1.8172-1.61533-2.925-1.61569-.22856.00008-.45416.02526-.67515.07418-.85022.18823-1.6321.72792-2.2499 1.54151zm10.66335 4.55276c0 .68342-.244 1.30957-.6504 1.79664-.6287-.26671-1.3441-.40505-2.0934-.40078.1341-.59531.2057-1.22406.2057-1.87327 0-.81594-.1132-1.60085-.3221-2.32822.018-.00034.036-.00051.054-.00051 1.5498 0 2.8062 1.25635 2.8062 2.80614zm-14.83112 1.79184c-.40409-.48631-.64645-1.11062-.64645-1.79184 0-1.54979 1.25635-2.80614 2.80614-2.80614.01839 0 .03672.00017.05501.00052-.20892.72737-.32209 1.51228-.32209 2.32821 0 .64694.07109 1.27354.20426 1.86699-.75025-.00556-1.46702.13347-2.09687.40226zm3.67632 3.5806c-1.64373-.487-2.77341-1.6029-3.107-2.7308.83607-.3064 1.88171-.3517 2.9473-.036 1.64638.4878 2.75071 1.6518 3.01604 2.8177-.82779.2434-1.83228.2525-2.85634-.0509zm9.9373-2.7247c-.8434-.3074-1.9006-.3517-2.9791-.0321-1.6436.4869-2.7538 1.6361-3.0385 2.7907.8381.2596 1.8648.2764 2.9124-.034 1.6406-.4861 2.7693-1.5988 3.1052-2.7246z" fill="#070707" fill-rule="evenodd"></path></svg>