<svg xmlns="http://www.w3.org/2000/svg" xmlns:xlink="http://www.w3.org/1999/xlink" fill="none" height="20" viewBox="0 0 21 20" width="21"><clipPath id="a"><path d="m.5 0h20v20h-20z"></path></clipPath><g clip-path="url(#a)"><path clip-rule="evenodd" d="m12.8335 4h-12.000004v9.8333h1.994164c-.20757.3295-.32766.7197-.32766 1.1379 0 1.1806.95708 2.1377 2.1377 2.1377 1.18061 0 2.13769-.9571 2.13769-2.1377 0-.4182-.12009-.8084-.32766-1.1379h7.37667l.0091.0001h1.1064c-.2075.3295-.3276.7196-.3276 1.1378 0 1.1806.9571 2.1377 2.1377 2.1377s2.1377-.9571 2.1377-2.1377c0-.4182-.1201-.8083-.3276-1.1378h.1067c.8285 0 1.5-.6716 1.5-1.5v-.5257c0-.5211-.1628-1.0291-.4656-1.4531l-1.5293-2.14095c-.4692-.65699-1.2269-1.0469-2.0343-1.0469h-1.8041v-1.66675c0-.82843-.6716-1.5-1.5-1.5zm.5 1.5c0-.27614-.2239-.5-.5-.5h-11v7.8333h11.5zm1 2.66675h1.8041c.4844 0 .939.23395 1.2206.62814l1.5292 2.14091c.1817.2544.2794.5592.2794.8719v.5257c0 .2762-.2238.5-.5.5h-4.3333zm-9.6958 5.66675c-.62834 0-1.1377.5094-1.1377 1.1377s.50936 1.1377 1.1377 1.1377c.62833 0 1.13769-.5094 1.13769-1.1377s-.50936-1.1377-1.13769-1.1377zm10.9746 1.1377c0-.6283.5094-1.1377 1.1377-1.1377s1.1377.5094 1.1377 1.1377-.5094 1.1377-1.1377 1.1377-1.1377-.5094-1.1377-1.1377z" fill="#000" fill-rule="evenodd"></path></g></svg>