<svg xmlns="http://www.w3.org/2000/svg" xmlns:xlink="http://www.w3.org/1999/xlink" fill="none" height="20" viewBox="0 0 21 20" width="21"><clipPath id="a"><path d="m.5 0h20v20h-20z"></path></clipPath><g clip-path="url(#a)"><path d="m10.7936 1.45907c.0075.27604-.2102.5059-.4862.51341-1.74074.04733-3.4189.6592-4.78158 1.74338s-2.33602 2.58191-2.77334 4.26747c-.43731 1.68555-.3149 3.46757.3488 5.07747s1.83271 2.9605 3.33084 3.8482c1.49814.8876 3.2442 1.2643 4.97508 1.0731 1.7308-.1911 3.3526-.9397 4.621-2.1328 1.2683-1.1932 2.1144-2.7663 2.4109-4.4823.2426-1.40473.1061-2.84292-.3874-4.1685l-.2891.86772c-.0873.26198-.3705.40359-.6325.31629-.2619-.0873-.4035-.37045-.3162-.63243l.8251-2.47615 2.486 1.11305c.252.11285.3649.40864.252.66067-.1128.25204-.4086.36487-.6607.25203l-.6736-.30162c.5108 1.44924.6456 3.01174.3818 4.53924-.3334 1.9296-1.2849 3.6986-2.7112 5.0403-1.4262 1.3418-3.25 2.1835-5.1964 2.3985-1.94634.2149-3.90984-.2086-5.59452-1.2068-1.68469-.9982-2.99927-2.5169-3.74562-4.3273-.74634-1.8104-.884-3.81436-.39223-5.70981.49177-1.89544 1.58632-3.57968 3.11869-4.79887 1.53236-1.21918 3.41949-1.90724 5.37698-1.960475.276-.007507.5059.210185.5134.486225z" fill="#070707"></path></g></svg>