<svg xmlns="http://www.w3.org/2000/svg" xmlns:xlink="http://www.w3.org/1999/xlink" fill="none" height="1973" viewBox="0 0 1064 1973" width="1064"><clipPath id="a"><path d="m0 0h1064v1973h-1064z" transform="matrix(-1 0 0 1 1064 0)"></path></clipPath><g clip-path="url(#a)"><path d="m1061.29-487.448c-27.12 129.869-86.993 254.821-181.832 347.623-94.839 92.8031-226.465 150.9706-359.03 145.11524-132.565-5.855409-263.142-80.37394-324.453-198.03424-27.618-52.975-36.621-127.383 9.943-164.725 34.853-27.951 86.498-22.096 127.041-3.59 50.762 23.2 92.243 62.973 127.428 106.281 40.377 49.715 74.457 107.054 83.571 170.4693 20.382 141.966-84.399 267.5807-134.277 402.0347-29.875 80.848-40.172 167.623-30.048 253.218 4.584 38.337 10.053 96.007 35.185 119.815 16.129 15.302 40.433-8.286 25.961-25.189-5.972-7.166-13.839-12.506-22.702-15.412-78.49-22.924-168.966 47.285-166.314 129.04 1.823 55.24 38.665 103.74 82.19 137.602 51.7 40.159 117.431 65.404 182.277 58.167 78.324-8.672 147.423-62.255 226.465-65.072 110.471-3.867 202.107 97.825 224.974 205.935 26.844 126.66-36.4 278.35-160.846 314.04-80.919 23.2-166.423-4.81-248.006-25.36s-175.704-31.6-243.423 18.4c-19.056 14.08-35.792 34.69-35.737 58.38 0 26.13 20.437 48.17 43.415 60.77 74.623 40.65 178.521-4.53 209.176-83.8 30.656-79.27-7.788-175.77-79.207-221.84s-167.529-44.69-243.699-6.96c-76.169 37.73-133.1724 107.66-167.1974 185.55-49.20171 112.68-53.1759 239.98-11.099 355.51 42.0769 115.54 126.9804 210.46 237.1224 265.1" stroke="#eee" stroke-miterlimit="10"></path></g></svg>