<svg xmlns="http://www.w3.org/2000/svg" fill="none" height="20" viewBox="0 0 21 20" width="21"><g fill="#000"><path d="m5.43277 3.73648c1.34383-1.34383 3.16646-2.09878 5.06693-2.09878 1.9005 0 3.7231.75495 5.0669 2.09878s2.0988 3.16646 2.0988 5.06692v5.1105c0 .2761.2239.5.5.5s.5-.2239.5-.5v-5.1105c0-2.16568-.8603-4.24266-2.3917-5.77402-1.5313-1.53137-3.6083-2.391685-5.774-2.391685-2.16569 0-4.24267.860315-5.77403 2.391685-1.53137 1.53136-2.39169 3.60834-2.39169 5.77402v5.1105c0 .0216.00138.0429.00405.0638.06508 2.0504.91051 3.4138 2.11197 4.2524 1.22221.8531 2.75628 1.1249 4.06137 1.1249h.56509c.27614 0 .5-.2239.5-.5 0-.2762-.22386-.5-.5-.5h-.56509c-1.19223 0-2.49686-.2523-3.48901-.9449-.96335-.6724-1.68838-1.7974-1.68838-3.6895v-4.9172c0-1.90046.75496-3.72309 2.09879-5.06692z"></path><g clip-rule="evenodd" fill-rule="evenodd"><path d="m2.83398 10.0068c-.27614 0-.5.2239-.5.5v3.4071c0 .5844.23216 1.1448.64539 1.558.41324.4133.9737.6454 1.55811.6454h.85174c.5844 0 1.14487-.2321 1.5581-.6454.41324-.4132.64539-.9737.64539-1.5581v-1.7035c0-.5844-.23215-1.1448-.64539-1.5581-.41323-.4132-.9737-.6454-1.5581-.6454zm.5 3.907v-2.907h2.05524c.31919 0 .6253.1268.851.3525s.35249.5318.35249.851v1.7035c0 .3192-.12679.6253-.35249.851s-.53181.3525-.851.3525h-.85174c-.31919 0-.6253-.1268-.851-.3525s-.3525-.5318-.3525-.851z"></path><path d="m15.6102 10.0068c-.5844 0-1.1449.2322-1.5581.6454-.4133.4133-.6454.9737-.6454 1.5581v1.7035c0 .5844.2321 1.1449.6454 1.5581.4132.4133.9737.6454 1.5581.6454h.8517c.5844 0 1.1449-.2321 1.5581-.6454.4133-.4132.6454-.9736.6454-1.558v-3.4071c0-.2761-.2239-.5-.5-.5zm-.851 1.3525c.2257-.2257.5318-.3525.851-.3525h2.0552v2.9071c0 .3192-.1268.6252-.3525.8509s-.5318.3525-.851.3525h-.8517c-.3192 0-.6253-.1268-.851-.3525s-.3525-.5318-.3525-.851v-1.7035c0-.3192.1268-.6253.3525-.851z"></path><path d="m8.55029 19.3623c-.27614 0-.5-.2239-.5-.5v-1.484c0-.3294.13086-.6453.36378-.8783.23292-.2329.54884-.3637.87824-.3637h2.41519c.3294 0 .6453.1308.8782.3637.233.233.3638.5489.3638.8783v.742c0 .3294-.1308.6453-.3638.8782-.2329.233-.5488.3638-.8782.3638zm.5-1.984v.984h2.65721c.0642 0 .1258-.0255.1711-.0709.0454-.0454.0709-.1069.0709-.1711v-.742c0-.0642-.0255-.1258-.0709-.1712-.0453-.0453-.1069-.0708-.1711-.0708h-2.41519c-.06419 0-.12575.0255-.17113.0708-.04539.0454-.07089.107-.07089.1712z"></path></g></g></svg>