<svg xmlns="http://www.w3.org/2000/svg" width="21" height="21" viewBox="0 0 21 21" fill="none"><path d="M14.8384 3.41699H6.50505C4.00505 3.41699 2.33838 4.66699 2.33838 7.58366V13.417C2.33838 16.3337 4.00505 17.5837 6.50505 17.5837H14.8384C17.3384 17.5837 19.005 16.3337 19.005 13.417V7.58366C19.005 4.66699 17.3384 3.41699 14.8384 3.41699ZM15.23 8.49199L12.6217 10.5753C12.0717 11.017 11.3717 11.2337 10.6717 11.2337C9.97171 11.2337 9.26338 11.017 8.72171 10.5753L6.11338 8.49199C5.84671 8.27533 5.80505 7.87533 6.01338 7.60866C6.23005 7.34199 6.62171 7.29199 6.88838 7.50866L9.49671 9.59199C10.13 10.1003 11.205 10.1003 11.8384 9.59199L14.4467 7.50866C14.7134 7.29199 15.1134 7.33366 15.3217 7.60866C15.5384 7.87533 15.4967 8.27533 15.23 8.49199Z" fill="white"></path></svg>