<svg xmlns="http://www.w3.org/2000/svg" width="182" height="153" viewBox="0 0 182 153" fill="none"><path d="M25.5 175.5C18.4479 175.5 12.5188 173.096 7.7125 168.287C2.90417 163.481 0.5 157.552 0.5 150.5C0.5 143.448 2.90417 137.519 7.7125 132.712C12.5188 127.904 18.4479 125.5 25.5 125.5H200.5C207.552 125.5 213.481 127.904 218.287 132.712C223.096 137.519 225.5 143.448 225.5 150.5C225.5 157.552 223.096 163.481 218.287 168.287C213.481 173.096 207.552 175.5 200.5 175.5H25.5ZM25.5 163H200.5C204.042 163 207.01 161.802 209.406 159.406C211.802 157.01 213 154.042 213 150.5C213 146.958 211.802 143.99 209.406 141.594C207.01 139.198 204.042 138 200.5 138H25.5C21.9583 138 18.9896 139.198 16.5938 141.594C14.1979 143.99 13 146.958 13 150.5C13 154.042 14.1979 157.01 16.5938 159.406C18.9896 161.802 21.9583 163 25.5 163ZM110.016 100.5C107.182 100.5 104.807 99.5417 102.891 97.625C100.976 95.7083 100.019 93.3333 100.019 90.5V10.4937C100.019 7.66041 100.977 5.28646 102.894 3.37188C104.81 1.45729 107.185 0.5 110.019 0.5H190.025C192.858 0.5 195.232 1.45834 197.147 3.375C199.061 5.29167 200.019 7.66667 200.019 10.5V90.5031C200.019 93.3385 199.06 95.7135 197.144 97.6281C195.227 99.5427 192.852 100.5 190.019 100.5H110.016ZM112.519 88H187.519V13H112.519V88ZM0.5 81.6062V69.3219H74.8031V81.6062H0.5ZM125.019 44.25H175.019V31.8219H125.019V44.25ZM25.5 44.25H74.8031V31.8219H25.5V44.25Z" fill="url(#paint0_linear_2037_13018)" fill-opacity="0.4"></path><defs><linearGradient id="paint0_linear_2037_13018" x1="202.167" y1="142.167" x2="66.3333" y2="1.33334" gradientUnits="userSpaceOnUse"><stop stop-color="#2A7D7D"></stop><stop offset="1" stop-color="#0FC3C3"></stop></linearGradient></defs></svg>