<svg xmlns="http://www.w3.org/2000/svg" width="40" height="41" viewBox="0 0 40 41" fill="none"><mask id="mask0_2037_12978" style="mask-type:alpha" maskUnits="userSpaceOnUse" x="0" y="0" width="40" height="41"><rect y="0.789062" width="40" height="40" fill="#D9D9D9"></rect></mask><g mask="url(#mask0_2037_12978)"><path d="M12.0886 33.2891C10.8172 33.2891 9.73554 32.843 8.8436 31.9507C7.95138 31.0588 7.50527 29.9771 7.50527 28.7057H3.56318L4.12068 26.2057H8.36443C8.7511 25.571 9.27193 25.0652 9.92693 24.6882C10.5817 24.311 11.3022 24.1224 12.0886 24.1224C12.875 24.1224 13.5957 24.311 14.2507 24.6882C14.9054 25.0652 15.4262 25.571 15.8132 26.2057H23.1399L26.7203 10.7891H11.8036L12.3353 8.28906H29.8449L28.3994 14.5391H32.5694L37.329 20.8853L35.7744 28.7057H33.1461C33.1461 29.9771 32.7001 31.0588 31.8082 31.9507C30.916 32.843 29.8343 33.2891 28.5632 33.2891C27.2918 33.2891 26.21 32.843 25.3178 31.9507C24.4258 31.0588 23.9799 29.9771 23.9799 28.7057H16.6719C16.6719 29.9771 16.2258 31.0588 15.3336 31.9507C14.4417 32.843 13.36 33.2891 12.0886 33.2891ZM26.5149 22.6641H34.4124L34.6432 21.4845L31.3194 17.0391H27.8257L26.5149 22.6641ZM26.7203 10.7891L23.1399 26.2057L23.3836 25.2249L26.7203 10.7891ZM6.4636 22.2632V17.4716H2.82568L8.09818 9.53906V14.3307H11.7361L6.4636 22.2632ZM12.0886 30.7891C12.6678 30.7891 13.1597 30.5866 13.5644 30.1816C13.9694 29.7768 14.1719 29.2849 14.1719 28.7057C14.1719 28.1266 13.9694 27.6346 13.5644 27.2299C13.1597 26.8249 12.6678 26.6224 12.0886 26.6224C11.5094 26.6224 11.0175 26.8249 10.6128 27.2299C10.2078 27.6346 10.0053 28.1266 10.0053 28.7057C10.0053 29.2849 10.2078 29.7768 10.6128 30.1816C11.0175 30.5866 11.5094 30.7891 12.0886 30.7891ZM28.5632 30.7891C29.1421 30.7891 29.634 30.5866 30.039 30.1816C30.444 29.7768 30.6465 29.2849 30.6465 28.7057C30.6465 28.1266 30.444 27.6346 30.039 27.2299C29.634 26.8249 29.1421 26.6224 28.5632 26.6224C27.984 26.6224 27.4919 26.8249 27.0869 27.2299C26.6819 27.6346 26.4794 28.1266 26.4794 28.7057C26.4794 29.2849 26.6819 29.7768 27.0869 30.1816C27.4919 30.5866 27.984 30.7891 28.5632 30.7891Z" fill="#2A7D7D"></path></g></svg>