<svg xmlns="http://www.w3.org/2000/svg" width="40" height="41" viewBox="0 0 40 41" fill="none"><mask id="mask0_2037_12984" style="mask-type:alpha" maskUnits="userSpaceOnUse" x="0" y="0" width="40" height="41"><rect y="0.789062" width="40" height="40" fill="#D9D9D9"></rect></mask><g mask="url(#mask0_2037_12984)"><path d="M2.47412 35.1154V31.4104C2.47412 30.5901 2.68884 29.8359 3.11829 29.1479C3.54773 28.4598 4.14704 27.9234 4.9162 27.5387C6.30093 26.8379 7.85009 26.2588 9.5637 25.8016C11.2773 25.3444 13.0808 25.1158 14.9741 25.1158C16.8672 25.1158 18.6705 25.3444 20.3841 25.8016C22.0977 26.2588 23.6469 26.8379 25.0316 27.5387C25.8008 27.9234 26.4001 28.4598 26.8295 29.1479C27.2593 29.8359 27.4741 30.5901 27.4741 31.4104V35.1154H2.47412ZM4.97412 32.6158H24.9741V31.4104C24.9741 31.0301 24.8709 30.7043 24.6645 30.4329C24.4584 30.1615 24.1983 29.9404 23.8841 29.7695C22.8627 29.2481 21.5673 28.7588 19.9979 28.3016C18.4284 27.8444 16.7538 27.6158 14.9741 27.6158C13.1941 27.6158 11.5194 27.8444 9.94995 28.3016C8.38051 28.7588 7.08509 29.2481 6.0637 29.7695C5.74954 29.9404 5.4894 30.1615 5.28329 30.4329C5.07718 30.7043 4.97412 31.0301 4.97412 31.4104V32.6158ZM14.9741 22.4233C13.3438 22.4233 11.964 21.8587 10.8345 20.7295C9.70537 19.6001 9.14079 18.1881 9.14079 16.4937H8.7562C8.53815 16.4937 8.36079 16.4254 8.22412 16.2887C8.08745 16.152 8.01912 15.9747 8.01912 15.7566C8.01912 15.5388 8.08745 15.3615 8.22412 15.2245C8.36079 15.0879 8.53815 15.0195 8.7562 15.0195H9.14079C9.16218 13.9726 9.40357 13.0266 9.86495 12.1816C10.3266 11.3363 10.9826 10.6113 11.8329 10.0066V11.5899C11.8329 11.808 11.9013 11.9854 12.0383 12.122C12.175 12.259 12.3523 12.3274 12.5704 12.3274C12.7881 12.3274 12.9654 12.259 13.102 12.122C13.239 11.9854 13.3075 11.808 13.3075 11.5899V9.37203C13.5466 9.2887 13.8079 9.22092 14.0912 9.1687C14.3743 9.1162 14.6686 9.08995 14.9741 9.08995C15.2797 9.08995 15.574 9.1162 15.857 9.1687C16.1401 9.22092 16.4013 9.2887 16.6408 9.37203V11.5899C16.6408 11.808 16.7091 11.9854 16.8458 12.122C16.9825 12.259 17.1598 12.3274 17.3779 12.3274C17.5959 12.3274 17.7733 12.259 17.91 12.122C18.0466 11.9854 18.115 11.808 18.115 11.5899V10.0066C18.9761 10.6113 19.6347 11.3363 20.0908 12.1816C20.5472 13.0266 20.7861 13.9726 20.8075 15.0195H21.192C21.4098 15.0195 21.5872 15.0879 21.7241 15.2245C21.8608 15.3615 21.9291 15.5388 21.9291 15.7566C21.9291 15.9747 21.8608 16.152 21.7241 16.2887C21.5872 16.4254 21.4098 16.4937 21.192 16.4937H20.8075C20.8075 18.1881 20.2427 19.6001 19.1133 20.7295C17.9841 21.8587 16.6044 22.4233 14.9741 22.4233ZM14.9741 19.9233C15.9122 19.9233 16.7022 19.6023 17.3441 18.9604C17.9863 18.3181 18.3075 17.528 18.3075 16.5899H11.6408C11.6408 17.528 11.9618 18.3181 12.6037 18.9604C13.2459 19.6023 14.0361 19.9233 14.9741 19.9233ZM27.5062 25.6604L27.3204 24.4424C27.1323 24.3869 26.9431 24.3111 26.7529 24.2149C26.5626 24.1188 26.3927 23.9959 26.2433 23.8462L25.1087 24.2949L24.3716 22.9874L25.3204 22.2183C25.299 22.1136 25.2883 22.0141 25.2883 21.9199V21.332C25.2883 21.2434 25.299 21.1413 25.3204 21.0258L24.3716 20.2566L25.1087 18.9491L26.2433 19.3979C26.3758 19.2654 26.5413 19.1468 26.74 19.042C26.9388 18.9373 27.1323 18.8572 27.3204 18.8016L27.5062 17.5837H28.9804L29.1662 18.8016C29.3543 18.8572 29.5477 18.9373 29.7466 19.042C29.9452 19.1468 30.1108 19.2654 30.2433 19.3979L31.3779 18.9491L32.115 20.2566L31.1662 21.0258C31.1876 21.1413 31.1983 21.2434 31.1983 21.332V21.9199C31.1983 22.0141 31.1876 22.1136 31.1662 22.2183L32.115 22.9874L31.3779 24.2949L30.2433 23.8462C30.0936 23.9959 29.9237 24.1188 29.7337 24.2149C29.5434 24.3111 29.3543 24.3869 29.1662 24.4424L28.9804 25.6604H27.5062ZM28.2433 23.0004C28.6194 23.0004 28.9431 22.8647 29.2145 22.5933C29.4859 22.3219 29.6216 21.9981 29.6216 21.622C29.6216 21.2459 29.4859 20.9222 29.2145 20.6508C28.9431 20.3794 28.6194 20.2437 28.2433 20.2437C27.8672 20.2437 27.5434 20.3794 27.272 20.6508C27.0007 20.9222 26.865 21.2459 26.865 21.622C26.865 21.9981 27.0007 22.3219 27.272 22.5933C27.5434 22.8647 27.8672 23.0004 28.2433 23.0004ZM31.4354 16.9745L31.1983 15.4491C30.9163 15.3763 30.6365 15.2615 30.3587 15.1045C30.0809 14.9473 29.848 14.7587 29.66 14.5387L28.1662 15.0899L27.2241 13.4745L28.4804 12.4491C28.4248 12.2994 28.3918 12.1615 28.3812 12.0354C28.3704 11.9093 28.365 11.7715 28.365 11.622C28.365 11.4726 28.3704 11.3348 28.3812 11.2087C28.3918 11.0826 28.4248 10.9447 28.4804 10.795L27.2241 9.76953L28.1662 8.15412L29.66 8.70537C29.848 8.48537 30.0809 8.29675 30.3587 8.13953C30.6365 7.98259 30.9163 7.86773 31.1983 7.79495L31.4354 6.26953H33.32L33.5575 7.79495C33.8394 7.86773 34.1193 7.98259 34.397 8.13953C34.6748 8.29675 34.9077 8.48537 35.0958 8.70537L36.5895 8.15412L37.5316 9.76953L36.2754 10.795C36.3309 10.9447 36.364 11.0826 36.3745 11.2087C36.3854 11.3348 36.3908 11.4726 36.3908 11.622C36.3908 11.7715 36.3854 11.9093 36.3745 12.0354C36.364 12.1615 36.3309 12.2994 36.2754 12.4491L37.5316 13.4745L36.5895 15.0899L35.0958 14.5387C34.9077 14.7587 34.6748 14.9473 34.397 15.1045C34.1193 15.2615 33.8394 15.3763 33.5575 15.4491L33.32 16.9745H31.4354ZM32.3779 13.8016C32.9932 13.8016 33.5102 13.5922 33.9291 13.1733C34.348 12.7544 34.5575 12.2373 34.5575 11.622C34.5575 11.0068 34.348 10.4897 33.9291 10.0708C33.5102 9.65189 32.9932 9.44245 32.3779 9.44245C31.7626 9.44245 31.2455 9.65189 30.8266 10.0708C30.4077 10.4897 30.1983 11.0068 30.1983 11.622C30.1983 12.2373 30.4077 12.7544 30.8266 13.1733C31.2455 13.5922 31.7626 13.8016 32.3779 13.8016Z" fill="#2A7D7D"></path></g></svg>