<svg xmlns="http://www.w3.org/2000/svg" width="40" height="40" viewBox="0 0 40 40" fill="none"><rect x="40" width="40" height="40" rx="20" transform="rotate(90 40 0)" fill="#EEEBE2"></rect><path d="M20.529 28.05L27.529 21.05C27.7166 20.8571 27.787 20.5787 27.7137 20.3198C27.6404 20.0609 27.4345 19.8608 27.1737 19.7948C26.9128 19.7289 26.6366 19.8071 26.449 20L20.749 25.71V12.48C20.749 12.0658 20.4132 11.73 19.999 11.73C19.5848 11.73 19.249 12.0658 19.249 12.48V25.7L13.549 20C13.4097 19.857 13.2186 19.7764 13.019 19.7764C12.8194 19.7764 12.6283 19.857 12.489 20C12.3444 20.1378 12.2645 20.3302 12.269 20.53C12.2681 20.729 12.3474 20.9201 12.489 21.06L19.489 28.06C19.7818 28.3524 20.2562 28.3524 20.549 28.06L20.529 28.05Z" fill="#2A7D7D"></path></svg>