<svg xmlns="http://www.w3.org/2000/svg" width="188" height="150" viewBox="0 0 188 150" fill="none"><path d="M105.786 184.039C107.202 184.039 108.653 183.719 110.138 183.08C111.624 182.443 112.826 181.665 113.743 180.748L198.203 96.2887C200.924 93.5677 203.024 90.7835 204.505 87.9361C205.984 85.0888 206.723 81.9634 206.723 78.5599C206.723 75.1149 205.984 71.771 204.505 68.5282C203.024 65.2855 200.924 62.3234 198.203 59.6422L157.578 19.0172C154.896 16.2962 152.143 14.3002 149.317 13.0291C146.49 11.758 143.354 11.1224 139.911 11.1224C136.508 11.1224 133.348 11.758 130.432 13.0291C127.514 14.3002 124.764 16.2962 122.182 19.0172L112.744 28.4557L132.786 48.5597C134.938 50.6704 136.542 53.0736 137.598 55.7693C138.653 58.4632 139.18 61.1986 139.18 63.9755C139.18 69.6161 137.336 74.2798 133.65 77.9668C129.963 81.6537 125.3 83.4972 119.661 83.4972C116.882 83.4972 114.17 83.0738 111.525 82.227C108.88 81.3802 106.501 79.9005 104.389 77.788L83.6591 57.1234L36.8889 103.894C35.7929 104.991 34.9705 106.238 34.4216 107.634C33.8727 109.03 33.5983 110.435 33.5983 111.851C33.5983 114.407 34.418 116.515 36.0574 118.175C37.6951 119.834 39.7922 120.664 42.3489 120.664C43.7645 120.664 45.2152 120.344 46.7012 119.705C48.1872 119.068 49.3888 118.29 50.306 117.373L84.6395 83.0395L92.3068 90.7068L58.0356 125.04C56.9378 126.136 56.1145 127.382 55.5656 128.778C55.0185 130.174 54.7449 131.58 54.7449 132.997C54.7449 135.415 55.599 137.478 57.307 139.186C59.0151 140.894 61.077 141.748 63.4929 141.748C64.9102 141.748 66.3619 141.428 67.8479 140.789C69.3338 140.15 70.5354 139.372 71.4526 138.455L108.286 101.686L115.953 109.351L79.1822 146.184C78.2235 147.102 77.4353 148.303 76.8178 149.789C76.1985 151.275 75.8889 152.727 75.8889 154.144C75.8889 156.56 76.7429 158.622 78.451 160.33C80.1608 162.04 82.2237 162.895 84.6395 162.895C86.0569 162.895 87.4634 162.62 88.8591 162.071C90.2548 161.522 91.5006 160.699 92.5966 159.601L129.43 122.83L137.097 130.498L100.264 167.331C99.1679 168.429 98.3455 169.745 97.7966 171.28C97.2477 172.814 96.9733 174.22 96.9733 175.497C96.9733 178.053 97.8724 180.116 99.6708 181.685C101.469 183.254 103.508 184.039 105.786 184.039ZM105.724 194.872C100.154 194.872 95.3862 192.834 91.4212 188.759C87.4562 184.682 85.7165 179.65 86.2022 173.663C80.0633 173.733 74.9518 171.901 70.8676 168.165C66.7853 164.428 64.8479 159.212 65.0556 152.519C58.3624 152.588 53.0883 150.675 49.2335 146.78C45.3786 142.884 43.6254 137.748 43.9739 131.372C37.9452 131.443 32.9031 129.748 28.8479 126.289C24.7926 122.831 22.7649 118.019 22.7649 111.851C22.7649 109.074 23.303 106.293 24.3791 103.509C25.4552 100.723 27.0486 98.2748 29.1593 96.1641L83.6591 41.7266L111.639 69.7064C112.556 70.6651 113.688 71.4532 115.035 72.0707C116.382 72.6882 117.903 72.997 119.599 72.997C121.917 72.997 123.965 72.1881 125.744 70.5703C127.522 68.9525 128.412 66.8446 128.412 64.2464C128.412 62.5527 128.102 61.0325 127.483 59.6855C126.865 58.3386 126.077 57.2065 125.118 56.2893L87.8489 19.0172C85.1677 16.2962 82.379 14.3002 79.4829 13.0291C76.5867 11.758 73.4171 11.1224 69.9739 11.1224C66.5704 11.1224 63.4802 11.758 60.7033 13.0291C57.9245 14.3002 55.1738 16.2962 52.451 19.0172L19.4716 52.0589C17.1533 54.379 15.2791 57.1433 13.8491 60.3518C12.4173 63.5602 11.6599 66.8725 11.5768 70.2887C11.4938 72.7334 11.7023 75.0842 12.2024 77.3411C12.7026 79.5981 13.4943 81.7196 14.5777 83.7057L6.36869 91.9147C4.54869 89.0114 3.12501 85.6675 2.09765 81.883C1.07029 78.0986 0.598138 74.2338 0.681193 70.2887C0.764249 65.3721 1.75008 60.6605 3.63869 56.1539C5.5273 51.6472 8.22932 47.6371 11.7447 44.1234L44.5156 11.3526C48.2928 7.61511 52.2894 4.83726 56.5054 3.01907C60.7195 1.19907 65.2785 0.289062 70.1824 0.289062C75.0845 0.289062 79.6083 1.19907 83.7539 3.01907C87.8995 4.83726 91.8401 7.61511 95.5758 11.3526L105.014 20.7884L114.453 11.3526C118.23 7.61511 122.191 4.83726 126.337 3.01907C130.483 1.19907 135.007 0.289062 139.911 0.289062C144.813 0.289062 149.372 1.19907 153.588 3.01907C157.802 4.83726 161.778 7.61511 165.516 11.3526L205.87 51.7068C209.606 55.4425 212.487 59.6368 214.515 64.2897C216.543 68.9426 217.556 73.7201 217.556 78.6222C217.556 83.5261 216.543 88.0508 214.515 92.1964C212.487 96.3419 209.606 100.283 205.87 104.018L121.411 188.415C119.161 190.665 116.713 192.304 114.066 193.331C111.42 194.358 108.64 194.872 105.724 194.872Z" fill="url(#paint0_linear_2037_13006)" fill-opacity="0.4"></path><defs><linearGradient id="paint0_linear_2037_13006" x1="199.188" y1="166.252" x2="12.3135" y2="11.0642" gradientUnits="userSpaceOnUse"><stop stop-color="#2A7D7D"></stop><stop offset="1" stop-color="#0FC3C3"></stop></linearGradient></defs></svg>