<svg xmlns="http://www.w3.org/2000/svg" width="328" height="128" viewBox="0 0 328 128" fill="none"><path d="M266.342 72.5755V75.3072H273.258C278.197 75.3072 280.275 75.4096 280.582 75.7169C281.161 76.2974 281.161 120.551 280.616 120.927C280.412 121.029 271.316 121.166 260.415 121.2C240.384 121.234 240.112 121.234 235.513 119.971C229.96 118.502 224.612 115.327 219.74 110.649C218.344 109.351 217.015 108.224 216.743 108.156C216.368 108.054 216.266 108.702 216.266 111.434V114.849L218.582 116.863C224.135 121.712 229.313 124.649 234.831 126.117C235.581 126.322 236.978 126.697 237.897 126.936C239.226 127.278 244.676 127.38 262.834 127.312C275.608 127.312 286.237 127.175 286.407 127.039C286.68 126.902 286.782 118.024 286.782 98.3218V69.8438H276.562H266.342V72.5755Z" fill="#EEEBE2"></path><path d="M243.518 19.0334C238.715 19.9895 233.23 21.4578 231.084 22.3456C227.166 23.9505 221.239 27.331 218.684 29.3797C218.377 29.6529 217.628 30.2675 217.015 30.7456L215.891 31.6675L215.993 35.1505C216.095 39.1797 216.436 39.5212 218.548 37.6432C222.159 34.4334 230.028 30.131 235.853 28.2529C237.795 27.6041 238.613 27.3993 242.837 26.409C245.46 25.7944 258.098 25.8285 260.381 26.4432C266.853 28.1846 271.384 30.4041 276.664 34.4675C278.095 35.5602 279.355 36.4139 279.423 36.3456C279.457 36.2773 280.377 35.1846 281.433 33.8871C282.523 32.6236 283.375 31.4627 283.375 31.2919C283.375 30.4724 277.448 25.9993 273.496 23.8822C269.783 21.8675 264.162 19.9212 259.325 18.9993C256.94 18.5554 245.766 18.5554 243.518 19.0334Z" fill="#EEEBE2"></path><path d="M164.998 20.3983C164.896 20.6373 164.862 44.7446 164.896 73.9398L164.998 127.037L167.859 127.14L170.721 127.242L170.551 84.0129C170.414 55.3641 170.482 40.8178 170.687 40.8861C170.891 40.9544 171.845 43.0715 172.867 45.5983C173.889 48.1251 174.877 50.5837 175.081 51.0617C175.32 51.5398 175.626 52.2568 175.763 52.6666C175.933 53.1105 176.239 53.8276 176.41 54.3056C176.614 54.7837 176.921 55.5349 177.091 56.0129C177.296 56.491 177.602 57.2422 177.772 57.7202C177.977 58.1983 178.249 58.9154 178.42 59.3251C178.59 59.769 178.965 60.6568 179.237 61.3056C179.544 61.9544 180.566 64.4812 181.52 66.9398C182.474 69.3641 183.496 71.9251 183.802 72.5739C184.075 73.2227 184.415 74.0763 184.586 74.4519C184.722 74.8276 184.994 75.5446 185.233 76.0568C185.574 76.9446 185.812 77.5251 186.595 79.4715C186.766 79.9154 187.141 80.8032 187.413 81.4519C187.686 82.1007 188.878 85.0373 190.036 87.9398C191.194 90.8422 192.387 93.7788 192.659 94.4276C192.932 95.0763 193.306 95.9641 193.477 96.3739C193.647 96.8178 193.954 97.569 194.158 98.0812C194.397 98.6276 194.669 99.3446 194.805 99.7202C195.112 100.54 195.589 101.701 196.27 103.306C196.543 103.954 197.735 106.891 198.893 109.793C200.051 112.696 201.244 115.632 201.516 116.281C202.027 117.51 202.402 118.398 202.947 119.764C203.731 121.847 204.412 123.52 205.332 125.603L206.047 127.242L208.704 127.14L211.327 127.037V73.5983V20.1593H208.432H205.536L205.434 64.1056C205.4 93.0276 205.264 108.086 205.025 108.086C204.821 108.086 204.684 107.847 204.684 107.574C204.684 107.301 204.548 106.789 204.378 106.447C204.208 106.14 203.935 105.491 203.765 105.013C203.56 104.535 203.254 103.75 203.015 103.203C202.811 102.691 202.47 101.871 202.266 101.325C202.027 100.813 201.755 100.096 201.619 99.7202C201.482 99.3446 201.21 98.6276 200.971 98.0812C200.494 96.8861 199.983 95.6568 199.609 94.6666C199.472 94.2568 199.166 93.5056 198.927 92.9593C198.723 92.4471 198.416 91.6959 198.246 91.2519C198.11 90.8422 197.803 90.1251 197.599 89.6471C197.326 88.9641 189.73 69.6715 188.674 66.9398C188.537 66.5641 188.231 65.7788 187.992 65.2324C187.754 64.6519 187.413 63.8324 187.209 63.3544C187.038 62.8763 186.732 62.1251 186.527 61.6471C186.357 61.169 186.05 60.4178 185.846 59.9398C185.676 59.4617 185.403 58.7788 185.267 58.4032C185.131 58.0276 184.858 57.3446 184.688 56.8666C184.483 56.3885 184.177 55.6373 184.006 55.1593C183.802 54.6812 183.461 53.8276 183.223 53.2812C182.78 52.2227 182.303 51.0276 181.86 49.8666C181.69 49.491 179.544 44.0276 177.091 37.7446C174.638 31.4617 172.492 25.9983 172.322 25.6227C172.186 25.2471 171.879 24.4617 171.641 23.9154C171.402 23.3349 171.061 22.5154 170.891 22.0373C170.142 20.1593 170.142 20.1593 167.587 20.0568C165.849 19.9885 165.1 20.091 164.998 20.3983Z" fill="#EEEBE2"></path><path d="M109.878 20.2276C109.809 20.3983 109.673 44.4715 109.605 73.769L109.469 127.037L112.501 127.14L115.532 127.242L115.294 88.7251C115.192 67.5544 114.987 47.9544 114.851 45.1544C114.613 39.7934 114.885 38.9398 115.941 41.569C116.248 42.3885 116.725 43.5837 117.031 44.2324C117.304 44.8812 117.645 45.7349 117.815 46.1105C117.951 46.4861 118.224 47.169 118.394 47.6471C118.598 48.1251 118.905 48.8763 119.075 49.3544C119.62 50.6861 120.097 51.8129 120.642 53.1105C120.915 53.7593 122.107 56.6959 123.265 59.5983C124.424 62.5007 125.616 65.4373 125.888 66.0861C126.57 67.691 127.047 68.8519 127.353 69.6715C127.796 70.9007 128.682 73.0178 129.499 74.9641C129.806 75.6129 130.828 78.1398 131.782 80.5983C132.736 83.0227 133.758 85.5837 134.064 86.2324C134.337 86.8812 134.677 87.7349 134.848 88.1105C134.984 88.4861 135.291 89.2373 135.529 89.8178C136.074 91.1154 136.585 92.3788 136.892 93.2324C137.198 94.0519 137.675 95.2129 138.357 96.8178C138.663 97.4666 139.685 99.9934 140.639 102.452C141.593 104.876 142.615 107.437 142.921 108.086C143.194 108.735 143.569 109.623 143.739 110.032C143.909 110.476 144.216 111.193 144.386 111.671C144.591 112.15 144.863 112.867 145.033 113.276C145.17 113.72 145.51 114.506 145.749 115.086C145.987 115.632 146.294 116.418 146.43 116.793C146.6 117.169 146.941 118.023 147.214 118.671C147.486 119.32 148.304 121.335 149.019 123.11C149.7 124.886 150.45 126.559 150.62 126.798C150.859 127.106 151.744 127.208 153.55 127.14L156.139 127.037V73.5983V20.1593H153.243H150.348L150.246 64.2763C150.211 93.3349 150.075 108.428 149.837 108.428C149.632 108.428 149.496 108.189 149.496 107.915C149.496 107.642 149.36 107.13 149.189 106.789C149.019 106.481 148.747 105.832 148.576 105.354C148.372 104.876 148.065 104.125 147.861 103.647C147.691 103.169 145.476 97.6373 143.024 91.3544C140.571 85.0715 138.391 79.5739 138.22 79.13C138.05 78.7202 137.777 78.0373 137.607 77.5934C137.471 77.1837 137.13 76.3641 136.892 75.8178C136.347 74.5202 135.836 73.2568 135.529 72.4032C135.393 72.0276 135.086 71.2422 134.848 70.6959C134.609 70.1154 134.269 69.33 134.132 68.8861C133.962 68.4763 133.69 67.7593 133.485 67.2812C133.315 66.8032 133.008 66.0519 132.804 65.5739C132.633 65.0959 132.293 64.3105 132.088 63.7641C131.85 63.2519 131.577 62.5349 131.441 62.1593C130.862 60.6568 122.857 40.2715 122.55 39.5202C122.38 39.1105 122.073 38.3593 121.869 37.8129C121.63 37.3007 121.324 36.5495 121.187 36.1056C121.017 35.6959 120.71 34.9446 120.506 34.3983C120.268 33.8861 119.961 33.1007 119.757 32.6227C119.586 32.1446 119.28 31.3934 119.075 30.9154C118.905 30.4373 118.632 29.7544 118.496 29.3788C118.19 28.5251 117.679 27.2617 117.134 25.9641C116.895 25.3837 116.554 24.5983 116.418 24.1544C114.613 19.5105 115.056 19.9885 112.398 19.9885C111.104 19.9885 109.946 20.091 109.878 20.2276Z" fill="#EEEBE2"></path><path d="M75.2305 20.8451C75.0602 21.3231 74.8217 22.1427 74.7195 22.6548C74.3789 24.1914 73.8338 26.5817 73.5272 27.8451C73.3569 28.4939 73.0503 29.7573 72.88 30.6451C72.6756 31.567 72.3349 33.0012 72.1305 33.889C71.9602 34.8109 71.6536 36.0744 71.4833 36.7231C71.3129 37.3719 71.0404 38.6012 70.836 39.4548C70.6657 40.3085 70.1888 42.3573 69.78 44.0646C69.3712 45.7378 68.8943 47.8207 68.7239 48.6744C68.5195 49.528 68.247 50.7573 68.0767 51.4061C67.9064 52.0548 67.5998 53.3524 67.3954 54.3085C67.191 55.2305 66.8844 56.5622 66.714 57.2109C66.4075 58.4402 65.8965 60.6256 65.3174 63.3573C65.113 64.2109 64.8404 65.4402 64.6701 66.089C64.4998 66.7378 64.2272 67.967 64.0229 68.8207C63.8525 69.6744 63.3756 71.7231 62.9668 73.4305C62.558 75.1036 62.0811 77.1866 61.9108 78.0402C61.7064 78.8939 61.4339 80.1231 61.2635 80.7719C61.0932 81.4207 60.8207 82.65 60.6163 83.5036C60.4459 84.3573 59.969 86.4061 59.5602 88.1134C59.1514 89.7865 58.6745 91.8695 58.5042 92.7231C58.2998 93.5768 58.0273 94.8061 57.8569 95.4548C57.6866 96.1036 57.38 97.367 57.2097 98.2548C57.0053 99.1768 56.6646 100.611 56.4602 101.499C56.2899 102.421 55.9833 103.684 55.813 104.333C55.6427 104.982 55.3701 106.211 55.1657 107.065C54.9954 107.918 54.5185 109.899 54.1438 111.504C53.769 113.108 53.2921 115.26 53.0537 116.284C52.8493 117.308 52.5427 118.538 52.4064 119.016C52.2702 119.494 51.9636 120.791 51.7251 121.918C51.5207 123.045 51.18 124.308 51.0097 124.752C50.8394 125.196 50.7031 125.913 50.7031 126.357C50.7031 127.177 50.7713 127.211 53.3603 127.211H56.0174L56.4262 125.504C56.6646 124.582 57.0053 122.977 57.2097 122.021C58.0273 118.06 58.3679 116.557 59.2536 112.596C59.8328 109.967 60.1734 108.362 60.5822 106.382C61.2295 103.309 61.5701 101.704 61.9789 99.9622C62.1833 99.0744 62.4558 97.7426 62.6262 96.9914C63.069 94.9426 63.5459 92.7231 63.9547 91.0158C64.1591 90.1622 64.5679 88.25 64.8404 86.7817C65.147 85.2792 65.4877 83.9134 65.5899 83.7426C65.8965 83.2305 88.5843 83.7426 89.0612 84.289C89.2656 84.528 89.6063 85.5524 89.8447 86.5768C90.0832 87.6012 90.5601 89.7183 90.9348 91.2548C92.5359 98.2207 93.0128 100.167 93.3194 101.601C93.5238 102.455 93.7964 103.684 93.9667 104.333C94.137 104.982 94.4436 106.279 94.648 107.235C94.8524 108.157 95.159 109.489 95.3293 110.138C95.4996 110.787 95.8062 112.084 96.0106 113.04C96.215 113.962 96.5216 115.294 96.6919 115.943C96.8623 116.591 97.1689 117.889 97.3733 118.845C97.5777 119.767 97.8843 121.099 98.0546 121.748C98.2249 122.396 98.5996 123.865 98.8381 124.991L99.315 127.04L102.074 127.143C104.118 127.211 104.868 127.108 104.868 126.835C104.868 126.426 104.118 123.113 103.505 120.723C103.335 120.074 102.892 118.128 102.483 116.455C102.074 114.748 101.631 112.835 101.461 112.187C101.291 111.538 100.848 109.591 100.439 107.918C100.03 106.211 99.5875 104.299 99.4172 103.65C99.2469 103.001 98.804 101.055 98.3952 99.3817C97.9864 97.6744 97.5436 95.7622 97.3733 95.1134C97.2029 94.4646 96.8963 93.1329 96.6919 92.2109C96.2491 90.2305 95.8744 88.6939 95.3634 86.7475C95.1931 85.9963 94.7161 83.9817 94.3073 82.3085C93.8986 80.6012 93.4557 78.689 93.2854 78.0402C93.115 77.3914 92.8084 76.0597 92.6041 75.1378C92.3997 74.1817 92.0931 72.8841 91.9227 72.2353C91.7524 71.5866 91.3096 69.6402 90.9008 67.967C90.492 66.2597 90.0491 64.3475 89.8788 63.6987C89.7085 63.05 89.2656 61.1036 88.8568 59.4305C88.448 57.7231 88.0052 55.8109 87.8348 55.1622C87.6645 54.5134 87.2217 52.567 86.8129 50.8939C86.4041 49.1866 85.9612 47.2744 85.7909 46.6256C85.6206 45.9768 85.1777 44.0305 84.7689 42.3573C84.3601 40.65 83.9173 38.7378 83.7469 38.089C83.5766 37.4402 83.1338 35.4939 82.725 33.8207C82.3162 32.1134 81.8733 30.2012 81.703 29.5524C81.5327 28.9036 81.2261 27.5036 80.9876 26.4792C80.7832 25.4548 80.4766 24.2597 80.3063 23.8158C80.136 23.3719 79.9997 22.689 79.9997 22.2792C79.9997 20.7427 79.0799 19.9914 77.2404 19.9914C75.7415 19.9914 75.503 20.0939 75.2305 20.8451ZM78.2964 37.8158C78.5349 38.6353 78.8415 39.8646 79.0118 40.5475C79.1821 41.2646 79.4547 42.4256 79.625 43.1085C79.8294 43.8256 80.136 45.1573 80.3404 46.1134C80.7151 47.7524 80.9876 48.9134 81.703 51.6451C81.8733 52.3622 82.3162 54.3085 82.725 56.0158C83.1338 57.689 83.5766 59.6353 83.7469 60.2841C83.9173 60.9329 84.3601 62.8451 84.7689 64.5524C85.1777 66.2256 85.6206 68.1719 85.7909 68.8207C86.2678 70.6987 87.4261 75.7183 87.6645 76.9134L87.903 78.0402H77.4788C71.7558 78.0402 67.0547 77.9719 67.0547 77.9378C67.0547 77.8695 67.5998 75.6841 68.2811 73.0548C68.9624 70.4597 69.6437 67.728 69.814 67.0109C70.1547 65.6109 70.6316 63.6646 71.1426 61.7183C71.4492 60.489 71.858 58.85 72.4712 56.2548C75.0261 45.8402 77.4788 36.3817 77.6832 36.3817C77.8195 36.3817 78.092 37.0305 78.2964 37.8158Z" fill="#EEEBE2"></path><path d="M1.03627 20.2653C0.695617 20.5043 0.627485 31.4311 0.695617 73.8067L0.797814 127.041H3.35275H5.90768L6.07801 101.26L6.24834 75.4799L9.65492 75.5482C13.845 75.6506 14.3219 75.7872 14.7989 76.7433C15.0033 77.1872 15.9912 78.8945 16.9791 80.6018C17.967 82.275 19.2274 84.5287 19.8065 85.5531C20.3516 86.5774 20.9307 87.5677 21.067 87.7726C21.2032 87.9433 21.6461 88.6604 22.0208 89.3092C22.7362 90.6067 28.6296 100.816 29.5834 102.455C29.9241 103.002 31.5933 105.938 33.3307 108.943C35.068 111.948 36.7713 114.919 37.112 115.534C38.6449 118.129 39.1559 119.051 41.4042 122.943L43.7548 127.041L46.3778 127.143C48.1152 127.212 49.0009 127.109 49.0009 126.87C49.0009 126.665 48.1493 125.026 47.1273 123.251C46.1053 121.441 45.2537 119.938 45.2537 119.87C45.2537 119.802 44.4361 118.334 43.4141 116.558C41.7108 113.587 41.1317 112.529 38.9174 108.499C38.4065 107.612 37.4867 106.007 36.8735 104.914C36.2262 103.821 35.7153 102.865 35.7153 102.797C35.7153 102.729 34.8977 101.26 33.8757 99.4848C32.1724 96.514 31.5933 95.4555 29.379 91.4262C28.868 90.5384 27.9483 88.9335 27.3351 87.8409C26.6878 86.7482 26.1768 85.7921 26.1768 85.7238C26.1768 85.6555 25.3593 84.1872 24.3373 82.4116C21.5439 77.5287 20.7263 75.9921 20.7263 75.6506C20.7263 75.4799 21.612 75.1726 22.7021 74.9677C23.7582 74.7628 25.2571 74.4213 26.0065 74.2165C32.5471 72.5092 38.2361 68.0701 40.9614 62.5384C43.1416 58.1335 43.2097 57.6896 43.2097 47.1384C43.2097 37.9189 43.1757 37.5092 42.3922 35.3579C41.0636 31.7043 40.1097 30.2018 37.4185 27.4701C33.8076 23.8165 29.7197 21.6653 24.1329 20.4701C21.6801 19.9579 1.81979 19.7872 1.03627 20.2653ZM24.9505 25.9677C29.4472 27.3335 33.7054 30.6799 35.5109 34.2653C37.5548 38.2945 37.7592 39.6262 37.7592 48.0262C37.7592 55.3335 37.7251 55.914 36.9416 58.2018C35.068 63.7677 31.423 67.3531 25.8362 69.1287C23.7582 69.8116 22.9406 69.8457 14.4241 69.7774L5.22637 69.675L5.12417 48.0262C5.09011 32.3189 5.15824 26.2409 5.43076 25.9335C6.00988 25.2165 22.5999 25.2506 24.9505 25.9677Z" fill="#EEEBE2"></path><path d="M302.11 20V7.94H297.99V6H308.61V7.94H304.49V20H302.11ZM310.788 20V6H313.628L318.108 15.04L322.548 6H325.408V20H323.008V10.12L319.048 18.04H317.168L313.188 10.14V20H310.788Z" fill="#E3E3E3"></path></svg>