<svg xmlns="http://www.w3.org/2000/svg" width="154" height="38" viewBox="0 0 154 38" fill="none"><path d="M147.484 22.3513C147.484 22.2177 147.501 22.0893 147.534 21.9663C147.567 21.8419 147.613 21.7261 147.673 21.6189C147.734 21.5104 147.808 21.4125 147.893 21.3252C147.978 21.2365 148.072 21.1604 148.175 21.0969C148.278 21.0334 148.389 20.9844 148.507 20.95C148.626 20.9156 148.749 20.8984 148.878 20.8984C149.006 20.8984 149.13 20.9156 149.248 20.95C149.367 20.9845 149.479 21.0334 149.582 21.0969C149.685 21.1604 149.779 21.2365 149.864 21.3252C149.95 21.4125 150.022 21.5104 150.082 21.6189C150.143 21.7261 150.19 21.8419 150.223 21.9663C150.256 22.0893 150.273 22.2177 150.273 22.3513C150.273 22.4837 150.256 22.612 150.223 22.7364C150.19 22.8595 150.143 22.9746 150.082 23.0818C150.022 23.1889 149.95 23.2869 149.864 23.3755C149.779 23.4629 149.685 23.5383 149.582 23.6018C149.479 23.6653 149.367 23.7143 149.248 23.7487C149.13 23.7831 149.006 23.8003 148.878 23.8003C148.749 23.8003 148.626 23.7831 148.507 23.7487C148.389 23.7143 148.278 23.6653 148.175 23.6018C148.072 23.5383 147.978 23.4629 147.893 23.3755C147.808 23.2869 147.734 23.1889 147.673 23.0818C147.614 22.9746 147.567 22.8595 147.534 22.7364C147.501 22.6133 147.484 22.485 147.484 22.3513ZM147.675 22.3513C147.675 22.4691 147.689 22.5822 147.717 22.6907C147.745 22.7993 147.785 22.9011 147.837 22.9964C147.89 23.0904 147.952 23.1757 148.024 23.2525C148.097 23.3292 148.178 23.3954 148.267 23.4509C148.356 23.5052 148.452 23.5475 148.555 23.578C148.658 23.6071 148.766 23.6216 148.878 23.6216C149.046 23.6216 149.203 23.5886 149.349 23.5224C149.497 23.4562 149.624 23.3663 149.733 23.2525C149.842 23.1373 149.928 23.003 149.99 22.8495C150.054 22.6947 150.086 22.5287 150.086 22.3513C150.086 22.2336 150.071 22.1198 150.042 22.0099C150.014 21.9001 149.974 21.7982 149.922 21.7043C149.869 21.609 149.806 21.5223 149.733 21.4443C149.66 21.3662 149.579 21.3 149.49 21.2458C149.401 21.1902 149.304 21.1472 149.2 21.1168C149.097 21.0863 148.99 21.0711 148.878 21.0711C148.71 21.0711 148.553 21.1049 148.406 21.1723C148.26 21.2385 148.133 21.3298 148.024 21.4463C147.916 21.5614 147.831 21.697 147.769 21.8531C147.706 22.008 147.675 22.174 147.675 22.3513ZM148.603 22.53V23.2326H148.305V21.4621H148.855C149.074 21.4621 149.236 21.5038 149.341 21.5872C149.447 21.6692 149.5 21.791 149.5 21.9524C149.5 22.0768 149.465 22.1826 149.397 22.27C149.329 22.3573 149.228 22.4175 149.093 22.4506C149.115 22.4638 149.133 22.4804 149.149 22.5002C149.165 22.5201 149.18 22.5432 149.194 22.5697L149.63 23.2326H149.347C149.305 23.2326 149.274 23.2161 149.254 23.183L148.87 22.5836C148.859 22.5664 148.845 22.5531 148.828 22.5439C148.813 22.5346 148.788 22.53 148.755 22.53L148.603 22.53ZM148.603 22.3037H148.824C148.894 22.3037 148.953 22.2971 149.002 22.2839C149.051 22.2693 149.091 22.2488 149.12 22.2223C149.15 22.1959 149.172 22.1634 149.185 22.1251C149.199 22.0867 149.206 22.0424 149.206 21.9921C149.206 21.9431 149.199 21.9001 149.187 21.8631C149.175 21.826 149.156 21.7956 149.128 21.7718C149.101 21.7479 149.065 21.7301 149.021 21.7182C148.976 21.7063 148.921 21.7003 148.855 21.7003H148.603L148.603 22.3037Z" fill="#404143"></path><path d="M66.752 17.6072C68.233 17.6072 69.4336 16.4075 69.4336 14.9276C69.4336 13.4477 68.233 12.248 66.752 12.248C65.2709 12.248 64.0703 13.4477 64.0703 14.9276C64.0703 16.4075 65.2709 17.6072 66.752 17.6072Z" fill="#9CA0A2"></path><path d="M71.8503 13.1576C74.1925 13.1576 76.0913 11.2756 76.0913 8.95406C76.0913 6.63249 74.1925 4.75049 71.8503 4.75049C69.5081 4.75049 67.6094 6.63249 67.6094 8.95406C67.6094 11.2756 69.5081 13.1576 71.8503 13.1576Z" fill="#CD345B"></path><path d="M65.6424 0.332031C64.1977 0.332045 62.8122 0.909905 61.7907 1.93849C60.7692 2.96708 60.1953 4.36213 60.1953 5.81677C60.1953 7.2714 60.7692 8.66646 61.7907 9.69504C62.8122 10.7236 64.1977 11.3015 65.6424 11.3015C66.1746 11.3006 66.7037 11.2212 67.213 11.0658C66.9418 10.4212 66.7867 9.67255 66.7795 8.82383C66.7595 6.4475 68.5246 4.44266 70.7697 3.96539C70.3909 2.90171 69.695 1.9818 68.7773 1.33145C67.8595 0.681102 66.7646 0.332054 65.6424 0.332031Z" fill="#636667"></path><path d="M57.0887 8.9175L51.3125 23.7926L54.1125 23.7872L55.5023 20.0026H60.7008L62.0439 23.7926L65.051 23.7922L59.2492 8.91748L57.0887 8.9175ZM58.1494 12.2347L60.284 18.1281L55.9264 18.1328L58.1494 12.2347Z" fill="white"></path><path d="M46.2096 23.7737L46.2044 11.3071L41.3334 11.302L41.3281 8.92078L53.7256 8.91553L53.7308 11.3069H48.818L48.8179 23.7736L46.2096 23.7737Z" fill="white"></path><path d="M32.878 11.3014H40.2525L40.2452 8.92285L30.2188 8.92597L30.2278 23.7782L40.258 23.7891L40.2507 21.3086L32.8871 21.3117L32.8719 17.308H39.0568L39.0793 15.1533H32.8779L32.878 11.3014Z" fill="white"></path><path d="M13.5992 23.7615L13.5781 8.96101L16.4199 8.91455L21.068 17.6652L25.7116 8.93411L28.3648 8.92808L28.3363 23.7615L25.7894 23.7451L25.7669 13.5139L21.7773 21.1596L20.2809 21.1536L16.1236 13.3946L16.179 23.7554L13.5992 23.7615Z" fill="white"></path><path d="M10.4185 12.6415L11.6755 10.5481C11.6755 10.5481 9.10237 8.89517 6.68189 8.88241C4.26141 8.86964 1.31748 10.2964 1.32898 13.4474C1.34047 16.5985 4.57285 17.0382 6.43049 17.6657C8.28813 18.2932 9.57555 18.7552 9.41285 19.9266C9.25016 21.098 8.41839 21.5557 6.37407 21.4968C4.32975 21.4379 1.95448 19.6754 1.95448 19.6754L0.78125 21.9587C0.78125 21.9587 3.52534 23.8894 6.38229 23.9295C9.23923 23.9697 12.3527 22.7704 12.298 19.7635C12.2433 16.7566 10.4991 16.0644 8.23962 15.4048C5.98014 14.7453 3.91632 14.3424 4.15578 12.676C4.39525 11.0096 6.59218 11.0715 7.85512 11.4139C9.11806 11.7564 10.4185 12.6415 10.4185 12.6415Z" fill="white"></path><path d="M78.7031 5.15661L79.6987 5.15625L79.7086 24.3124L78.7127 24.3319L78.7031 5.15661Z" fill="#2C2E30"></path><path d="M66.7578 22.7399C66.7578 22.6213 66.7725 22.5073 66.8019 22.3981C66.8312 22.2877 66.8724 22.1849 66.9255 22.0898C66.9797 21.9934 67.0447 21.9065 67.1204 21.829C67.196 21.7503 67.2796 21.6828 67.3711 21.6264C67.4626 21.57 67.5608 21.5265 67.6659 21.496C67.7709 21.4655 67.8805 21.4502 67.9945 21.4502C68.1086 21.4502 68.2182 21.4655 68.3232 21.496C68.4294 21.5265 68.5282 21.57 68.6197 21.6264C68.7112 21.6828 68.7948 21.7503 68.8704 21.829C68.9461 21.9065 69.0105 21.9934 69.0636 22.0898C69.1178 22.1849 69.1596 22.2877 69.1889 22.3981C69.2183 22.5073 69.233 22.6213 69.233 22.7399C69.233 22.8574 69.2183 22.9713 69.1889 23.0817C69.1596 23.191 69.1178 23.2931 69.0636 23.3883C69.0105 23.4834 68.9461 23.5704 68.8704 23.649C68.7948 23.7266 68.7112 23.7935 68.6197 23.8499C68.5282 23.9063 68.4294 23.9497 68.3232 23.9803C68.2182 24.0108 68.1086 24.0261 67.9945 24.0261C67.8805 24.0261 67.7709 24.0108 67.6659 23.9803C67.5608 23.9497 67.4626 23.9063 67.3711 23.8499C67.2796 23.7935 67.196 23.7266 67.1204 23.649C67.0447 23.5704 66.9797 23.4834 66.9255 23.3883C66.8724 23.2931 66.8312 23.191 66.8019 23.0817C66.7725 22.9725 66.7578 22.8585 66.7578 22.7399ZM66.9272 22.7399C66.9272 22.8444 66.9397 22.9449 66.9645 23.0412C66.9894 23.1375 67.025 23.228 67.0713 23.3125C67.1176 23.3959 67.1729 23.4717 67.2373 23.5398C67.3017 23.6079 67.3734 23.6667 67.4524 23.716C67.5315 23.7642 67.6168 23.8017 67.7083 23.8288C67.7997 23.8546 67.8952 23.8675 67.9946 23.8675C68.1437 23.8675 68.2832 23.8382 68.413 23.7794C68.5441 23.7207 68.6576 23.6408 68.7536 23.5398C68.8507 23.4376 68.9269 23.3184 68.9823 23.1821C69.0387 23.0447 69.067 22.8973 69.067 22.7399C69.067 22.6354 69.054 22.5344 69.028 22.4369C69.0032 22.3394 68.9676 22.2489 68.9213 22.1655C68.875 22.081 68.8191 22.004 68.7536 21.9347C68.6892 21.8654 68.6175 21.8067 68.5384 21.7585C68.4594 21.7092 68.3735 21.671 68.2809 21.644C68.1894 21.617 68.094 21.6035 67.9946 21.6035C67.8455 21.6035 67.706 21.6334 67.5761 21.6933C67.4462 21.7521 67.3333 21.8331 67.2373 21.9365C67.1413 22.0387 67.0656 22.1591 67.0103 22.2977C66.9549 22.4351 66.9272 22.5825 66.9272 22.7399ZM67.7506 22.8985V23.5222H67.4863V21.9506H67.9742C68.1685 21.9506 68.3125 21.9876 68.4062 22.0616C68.5 22.1344 68.5468 22.2425 68.5468 22.3858C68.5468 22.4962 68.5164 22.5901 68.4554 22.6677C68.3955 22.7452 68.3057 22.7986 68.186 22.828C68.2052 22.8398 68.2215 22.8544 68.2351 22.8721C68.2498 22.8897 68.2634 22.9102 68.2758 22.9337L68.6621 23.5222H68.4113C68.374 23.5222 68.3464 23.5075 68.3283 23.4781L67.9878 22.9461C67.9776 22.9308 67.9652 22.919 67.9505 22.9108C67.937 22.9026 67.9155 22.8985 67.8861 22.8985L67.7506 22.8985ZM67.7506 22.6976H67.9471C68.0092 22.6976 68.0618 22.6917 68.1047 22.68C68.1487 22.6671 68.1837 22.6489 68.2097 22.6254C68.2368 22.6019 68.256 22.5731 68.2673 22.539C68.2797 22.505 68.286 22.4656 68.286 22.421C68.286 22.3775 68.2803 22.3394 68.269 22.3065C68.2588 22.2736 68.2413 22.2466 68.2165 22.2254C68.1928 22.2043 68.1612 22.1884 68.1216 22.1779C68.0821 22.1673 68.033 22.162 67.9743 22.162H67.7506L67.7506 22.6976Z" fill="#3B3E3C" stroke="black" stroke-width="1.06512" stroke-linecap="round" stroke-linejoin="round"></path><path d="M147.126 5.8501C146.306 5.85009 145.494 6.01145 144.737 6.32496C143.979 6.63846 143.291 7.09798 142.711 7.67728C142.132 8.25657 141.672 8.94429 141.358 9.70118C141.044 10.4581 140.883 11.2693 140.883 12.0885C140.888 13.092 141.135 14.0793 141.604 14.9668L143.065 12.6317L146.917 12.6276L143.596 17.2206C144.634 17.9373 145.864 18.3231 147.126 18.327C147.946 18.327 148.758 18.1656 149.515 17.8521C150.273 17.5386 150.961 17.0791 151.541 16.4998C152.121 15.9205 152.58 15.2328 152.894 14.4759C153.208 13.719 153.369 12.9078 153.369 12.0885C153.369 11.2693 153.208 10.4581 152.894 9.70118C152.58 8.94429 152.121 8.25657 151.541 7.67728C150.961 7.09798 150.273 6.63846 149.515 6.32496C148.758 6.01145 147.946 5.85009 147.126 5.8501Z" fill="#CD3553"></path><path d="M135.787 12.688L139.591 17.9673L135.523 23.4737H139.116L141.146 20.2746L143.176 23.4737H146.612L139.183 12.695L135.787 12.688Z" fill="white"></path><path d="M130.276 12.8989C126.026 12.9033 124.959 17.3803 124.961 18.0575C124.951 19.0718 125.15 20.9469 126.345 22.0992C127.558 23.269 128.617 23.9593 130.628 23.9523C132.638 23.9453 133.955 22.8657 134.831 21.996C134.24 21.576 133.515 21.0141 132.731 20.4343C132.399 20.7567 131.706 21.4623 130.358 21.4488C129.01 21.4353 127.813 20.17 127.6 19.061C129.01 19.0577 134.144 19.0878 136.043 19.0902C136.005 16.0451 134.526 12.8946 130.276 12.8989ZM130.422 15.4742C132.177 15.4801 132.852 16.6034 133.1 17.276C132.224 17.2799 129.012 17.2717 127.997 17.2807C128.26 16.3905 129.06 15.4684 130.422 15.4742Z" fill="white"></path><path d="M123.631 6.96875L121.042 6.97381C121.042 6.97381 121.016 12.3441 121.013 13.7621C119.881 13.0538 119.15 12.6951 117.264 12.8357C115.378 12.9764 112.451 15.311 112.461 18.4023C112.471 21.4935 115.019 23.9236 117.944 23.9236C120.868 23.9235 123.669 21.3593 123.645 18.6759C123.622 15.9924 123.631 6.96875 123.631 6.96875ZM118.025 15.3925C118.803 15.3925 119.549 15.7063 120.099 16.2649C120.649 16.8235 120.958 17.5811 120.958 18.3711C120.958 19.161 120.649 19.9187 120.099 20.4772C119.549 21.0358 118.803 21.3496 118.025 21.3496C117.247 21.3495 116.502 21.0357 115.952 20.4771C115.402 19.9185 115.093 19.161 115.093 18.3711C115.093 17.5811 115.402 16.8236 115.952 16.265C116.502 15.7064 117.247 15.3926 118.025 15.3925Z" fill="white"></path><path d="M105.401 12.8545C101.151 12.8588 100.084 17.3358 100.086 18.0131C100.076 19.0274 100.275 20.9025 101.47 22.0548C102.683 23.2246 103.742 23.9148 105.753 23.9079C107.763 23.9009 109.08 22.8212 109.956 21.9515C109.365 21.5315 108.64 20.9696 107.856 20.3898C107.524 20.7123 106.831 21.4179 105.483 21.4044C104.135 21.3908 102.938 20.1256 102.725 19.0165C104.135 19.0132 109.269 19.0433 111.168 19.0457C111.13 16.0007 109.651 12.8501 105.401 12.8545ZM105.547 15.4298C107.302 15.4356 107.977 16.559 108.225 17.2316C107.349 17.2354 104.137 17.2273 103.122 17.2362C103.385 16.346 104.185 15.424 105.547 15.4298Z" fill="white"></path><path d="M96.285 10.5364L98.4518 8.37454C98.4518 8.37454 95.7124 6.45766 93.2919 6.4449C90.8714 6.43213 87.5361 8.09347 87.5476 11.2445C87.5591 14.3956 90.7035 15.8911 92.5611 16.5186C94.4187 17.1461 95.9116 17.9111 95.9055 18.9457C95.899 19.9802 95.1947 21.0049 93.1308 21.1122C91.0669 21.2195 89.2297 19.5938 89.2297 19.5938L87.0391 21.7794C87.0391 21.7794 90.0864 23.9544 92.9434 23.9946C95.8003 24.0347 99.0117 22.2 98.9569 19.1931C98.9022 16.1863 96.6591 14.7608 94.3996 14.1013C92.1401 13.4418 90.6245 12.59 90.6582 10.9717C90.6918 9.35337 93.6154 8.80763 94.6608 9.40655C95.7062 10.0055 96.285 10.5364 96.285 10.5364Z" fill="white"></path><path d="M2.86475 37.491C2.50542 37.491 2.19275 37.4257 1.92675 37.295C1.66075 37.1644 1.45542 36.9824 1.31075 36.749C1.16608 36.5157 1.09375 36.245 1.09375 35.937H1.70975C1.70975 36.1284 1.75408 36.3057 1.84275 36.469C1.93142 36.6277 2.05975 36.756 2.22775 36.854C2.40042 36.9474 2.61275 36.994 2.86475 36.994C3.08408 36.994 3.27075 36.959 3.42475 36.889C3.58342 36.8144 3.70242 36.714 3.78175 36.588C3.86575 36.462 3.90775 36.3197 3.90775 36.161C3.90775 35.9697 3.86575 35.8157 3.78175 35.699C3.70242 35.5777 3.59275 35.4797 3.45275 35.405C3.31275 35.3304 3.14942 35.265 2.96275 35.209C2.78075 35.1484 2.58942 35.083 2.38875 35.013C2.00142 34.8824 1.71675 34.7214 1.53475 34.53C1.35275 34.334 1.26175 34.0797 1.26175 33.767C1.26175 33.501 1.32242 33.2677 1.44375 33.067C1.56975 32.8664 1.74708 32.71 1.97575 32.598C2.20908 32.4814 2.48442 32.423 2.80175 32.423C3.11442 32.423 3.38508 32.4814 3.61375 32.598C3.84708 32.7147 4.02908 32.8757 4.15975 33.081C4.29042 33.2817 4.35575 33.515 4.35575 33.781H3.73975C3.73975 33.6457 3.70475 33.5127 3.63475 33.382C3.56475 33.2514 3.45742 33.144 3.31275 33.06C3.17275 32.9714 2.99542 32.927 2.78075 32.927C2.60342 32.9224 2.44475 32.9527 2.30475 33.018C2.16942 33.0787 2.06208 33.1674 1.98275 33.284C1.90808 33.4007 1.87075 33.543 1.87075 33.711C1.87075 33.8697 1.90342 33.998 1.96875 34.096C2.03875 34.194 2.13675 34.278 2.26275 34.348C2.39342 34.4134 2.54508 34.474 2.71775 34.53C2.89042 34.586 3.08175 34.649 3.29175 34.719C3.52975 34.7984 3.73975 34.8964 3.92175 35.013C4.10842 35.125 4.25308 35.2697 4.35575 35.447C4.46308 35.6244 4.51675 35.8507 4.51675 36.126C4.51675 36.3594 4.45375 36.581 4.32775 36.791C4.20642 36.9964 4.02442 37.1644 3.78175 37.295C3.53908 37.4257 3.23342 37.491 2.86475 37.491Z" fill="white"></path><path d="M5.3643 37.407V32.507H6.0503L7.7863 35.93L9.5153 32.507H10.2083V37.407H9.6203V33.557L8.0033 36.721H7.5623L5.9523 33.571V37.407H5.3643Z" fill="white"></path><path d="M11.2569 37.407V32.507H14.2879V32.99H11.8449V34.698H14.0779V35.174H11.8449V36.924H14.2879V37.407H11.2569Z" fill="white"></path><path d="M16.3629 37.407V32.99H14.8999V32.507H18.4139V32.99H16.9509V37.407H16.3629Z" fill="white"></path><path d="M18.27 37.407L20.076 32.507H20.699L22.498 37.407H21.875L20.384 33.242L18.886 37.407H18.27ZM19.096 36.147L19.264 35.671H21.483L21.651 36.147H19.096Z" fill="white"></path><path d="M26.4438 37.407C26.2338 37.407 26.0518 37.3744 25.8978 37.309C25.7438 37.2437 25.6248 37.134 25.5408 36.98C25.4615 36.8214 25.4218 36.609 25.4218 36.343V34.376H24.8058V33.879H25.4218L25.4988 33.025H26.0098V33.879H27.0318V34.376H26.0098V36.343C26.0098 36.5624 26.0541 36.7117 26.1428 36.791C26.2315 36.8657 26.3878 36.903 26.6118 36.903H26.9898V37.407H26.4438Z" fill="white"></path><path d="M27.799 37.407V32.367H28.387V34.474C28.5037 34.264 28.667 34.0984 28.877 33.977C29.0917 33.8557 29.325 33.795 29.577 33.795C29.8477 33.795 30.0834 33.851 30.284 33.963C30.4847 34.0704 30.6387 34.236 30.746 34.46C30.8534 34.684 30.907 34.9664 30.907 35.307V37.407H30.326V35.37C30.326 35.0154 30.2514 34.7494 30.102 34.572C29.9527 34.39 29.7357 34.299 29.451 34.299C29.2504 34.299 29.0684 34.348 28.905 34.446C28.7464 34.544 28.6204 34.684 28.527 34.866C28.4337 35.048 28.387 35.272 28.387 35.538V37.407H27.799Z" fill="white"></path><path d="M33.3724 37.491C33.0457 37.491 32.7541 37.414 32.4974 37.26C32.2407 37.106 32.0401 36.8914 31.8954 36.616C31.7507 36.336 31.6784 36.0117 31.6784 35.643C31.6784 35.2697 31.7484 34.9454 31.8884 34.67C32.0331 34.3947 32.2337 34.18 32.4904 34.026C32.7517 33.872 33.0504 33.795 33.3864 33.795C33.7317 33.795 34.0257 33.872 34.2684 34.026C34.5111 34.18 34.6954 34.383 34.8214 34.635C34.9521 34.8824 35.0174 35.1554 35.0174 35.454C35.0174 35.5007 35.0174 35.5497 35.0174 35.601C35.0174 35.6524 35.0151 35.7107 35.0104 35.776H32.1194V35.321H34.4364C34.4224 34.999 34.3151 34.747 34.1144 34.565C33.9184 34.383 33.6711 34.292 33.3724 34.292C33.1764 34.292 32.9921 34.3387 32.8194 34.432C32.6467 34.5207 32.5091 34.6537 32.4064 34.831C32.3037 35.0037 32.2524 35.2207 32.2524 35.482V35.678C32.2524 35.9674 32.3037 36.21 32.4064 36.406C32.5137 36.602 32.6514 36.749 32.8194 36.847C32.9921 36.945 33.1764 36.994 33.3724 36.994C33.6197 36.994 33.8227 36.9404 33.9814 36.833C34.1447 36.721 34.2637 36.5694 34.3384 36.378H34.9194C34.8587 36.5927 34.7584 36.784 34.6184 36.952C34.4784 37.1154 34.3034 37.246 34.0934 37.344C33.8881 37.442 33.6477 37.491 33.3724 37.491Z" fill="white"></path><path d="M39.2593 37.491C38.8999 37.491 38.5873 37.4257 38.3213 37.295C38.0553 37.1644 37.8499 36.9824 37.7053 36.749C37.5606 36.5157 37.4883 36.245 37.4883 35.937H38.1043C38.1043 36.1284 38.1486 36.3057 38.2373 36.469C38.3259 36.6277 38.4543 36.756 38.6223 36.854C38.7949 36.9474 39.0073 36.994 39.2593 36.994C39.4786 36.994 39.6653 36.959 39.8193 36.889C39.978 36.8144 40.0969 36.714 40.1763 36.588C40.2603 36.462 40.3023 36.3197 40.3023 36.161C40.3023 35.9697 40.2603 35.8157 40.1763 35.699C40.0969 35.5777 39.9873 35.4797 39.8473 35.405C39.7073 35.3304 39.5439 35.265 39.3573 35.209C39.1753 35.1484 38.9839 35.083 38.7833 35.013C38.3959 34.8824 38.1113 34.7214 37.9293 34.53C37.7473 34.334 37.6563 34.0797 37.6563 33.767C37.6563 33.501 37.7169 33.2677 37.8383 33.067C37.9643 32.8664 38.1416 32.71 38.3703 32.598C38.6036 32.4814 38.8789 32.423 39.1963 32.423C39.5089 32.423 39.7796 32.4814 40.0083 32.598C40.2416 32.7147 40.4236 32.8757 40.5543 33.081C40.685 33.2817 40.7503 33.515 40.7503 33.781H40.1343C40.1343 33.6457 40.0993 33.5127 40.0293 33.382C39.9593 33.2514 39.8519 33.144 39.7073 33.06C39.5673 32.9714 39.3899 32.927 39.1753 32.927C38.9979 32.9224 38.8393 32.9527 38.6993 33.018C38.5639 33.0787 38.4566 33.1674 38.3773 33.284C38.3026 33.4007 38.2653 33.543 38.2653 33.711C38.2653 33.8697 38.2979 33.998 38.3633 34.096C38.4333 34.194 38.5313 34.278 38.6573 34.348C38.7879 34.4134 38.9396 34.474 39.1123 34.53C39.285 34.586 39.4763 34.649 39.6863 34.719C39.9243 34.7984 40.1343 34.8964 40.3163 35.013C40.5029 35.125 40.6476 35.2697 40.7503 35.447C40.8576 35.6244 40.9113 35.8507 40.9113 36.126C40.9113 36.3594 40.8483 36.581 40.7223 36.791C40.6009 36.9964 40.4189 37.1644 40.1763 37.295C39.9336 37.4257 39.6279 37.491 39.2593 37.491Z" fill="white"></path><path d="M43.2708 37.491C42.9442 37.491 42.6525 37.414 42.3958 37.26C42.1392 37.106 41.9385 36.8914 41.7938 36.616C41.6492 36.336 41.5768 36.0117 41.5768 35.643C41.5768 35.2697 41.6468 34.9454 41.7868 34.67C41.9315 34.3947 42.1322 34.18 42.3888 34.026C42.6502 33.872 42.9488 33.795 43.2848 33.795C43.6302 33.795 43.9242 33.872 44.1668 34.026C44.4095 34.18 44.5938 34.383 44.7198 34.635C44.8505 34.8824 44.9158 35.1554 44.9158 35.454C44.9158 35.5007 44.9158 35.5497 44.9158 35.601C44.9158 35.6524 44.9135 35.7107 44.9088 35.776H42.0178V35.321H44.3348C44.3208 34.999 44.2135 34.747 44.0128 34.565C43.8168 34.383 43.5695 34.292 43.2708 34.292C43.0748 34.292 42.8905 34.3387 42.7178 34.432C42.5452 34.5207 42.4075 34.6537 42.3048 34.831C42.2022 35.0037 42.1508 35.2207 42.1508 35.482V35.678C42.1508 35.9674 42.2022 36.21 42.3048 36.406C42.4122 36.602 42.5498 36.749 42.7178 36.847C42.8905 36.945 43.0748 36.994 43.2708 36.994C43.5182 36.994 43.7212 36.9404 43.8798 36.833C44.0432 36.721 44.1622 36.5694 44.2368 36.378H44.8178C44.7572 36.5927 44.6568 36.784 44.5168 36.952C44.3768 37.1154 44.2018 37.246 43.9918 37.344C43.7865 37.442 43.5462 37.491 43.2708 37.491Z" fill="white"></path><path d="M47.2633 37.491C46.9227 37.491 46.6217 37.4117 46.3603 37.253C46.1037 37.0897 45.9053 36.868 45.7653 36.588C45.6253 36.308 45.5553 35.9907 45.5553 35.636C45.5553 35.2814 45.6253 34.9664 45.7653 34.691C45.9053 34.411 46.1037 34.1917 46.3603 34.033C46.6217 33.8744 46.925 33.795 47.2703 33.795C47.555 33.795 47.8047 33.8534 48.0193 33.97C48.2387 34.0867 48.409 34.25 48.5303 34.46V32.367H49.1183V37.407H48.5863L48.5303 36.826C48.4557 36.9427 48.36 37.0524 48.2433 37.155C48.1267 37.253 47.9867 37.3347 47.8233 37.4C47.6647 37.4607 47.478 37.491 47.2633 37.491ZM47.3263 36.98C47.5597 36.98 47.765 36.924 47.9423 36.812C48.1197 36.7 48.2573 36.546 48.3553 36.35C48.458 36.1494 48.5093 35.9137 48.5093 35.643C48.5093 35.377 48.458 35.1437 48.3553 34.943C48.2573 34.7424 48.1197 34.586 47.9423 34.474C47.765 34.362 47.5597 34.306 47.3263 34.306C47.1023 34.306 46.8993 34.362 46.7173 34.474C46.54 34.586 46.4023 34.7424 46.3043 34.943C46.2063 35.1437 46.1573 35.377 46.1573 35.643C46.1573 35.9137 46.2063 36.1494 46.3043 36.35C46.4023 36.546 46.54 36.7 46.7173 36.812C46.8993 36.924 47.1023 36.98 47.3263 36.98Z" fill="white"></path><path d="M51.638 37.491C51.3113 37.491 51.0197 37.414 50.763 37.26C50.5063 37.106 50.3057 36.8914 50.161 36.616C50.0163 36.336 49.944 36.0117 49.944 35.643C49.944 35.2697 50.014 34.9454 50.154 34.67C50.2987 34.3947 50.4993 34.18 50.756 34.026C51.0173 33.872 51.316 33.795 51.652 33.795C51.9973 33.795 52.2913 33.872 52.534 34.026C52.7767 34.18 52.961 34.383 53.087 34.635C53.2177 34.8824 53.283 35.1554 53.283 35.454C53.283 35.5007 53.283 35.5497 53.283 35.601C53.283 35.6524 53.2807 35.7107 53.276 35.776H50.385V35.321H52.702C52.688 34.999 52.5807 34.747 52.38 34.565C52.184 34.383 51.9367 34.292 51.638 34.292C51.442 34.292 51.2577 34.3387 51.085 34.432C50.9123 34.5207 50.7747 34.6537 50.672 34.831C50.5694 35.0037 50.518 35.2207 50.518 35.482V35.678C50.518 35.9674 50.5694 36.21 50.672 36.406C50.7794 36.602 50.917 36.749 51.085 36.847C51.2577 36.945 51.442 36.994 51.638 36.994C51.8853 36.994 52.0883 36.9404 52.247 36.833C52.4104 36.721 52.5294 36.5694 52.604 36.378H53.185C53.1244 36.5927 53.024 36.784 52.884 36.952C52.744 37.1154 52.569 37.246 52.359 37.344C52.1537 37.442 51.9133 37.491 51.638 37.491Z" fill="white"></path><path d="M53.5555 37.407L54.7525 35.643L53.5555 33.879H54.1995L55.1515 35.321L56.1175 33.879H56.7475L55.5505 35.643L56.7475 37.407H56.1175L55.1515 35.958L54.1995 37.407H53.5555Z" fill="white"></path><path d="M59.2725 37.407V32.507H59.9585L61.6945 35.93L63.4235 32.507H64.1165V37.407H63.5285V33.557L61.9115 36.721H61.4705L59.8605 33.571V37.407H59.2725Z" fill="white"></path><path d="M66.6771 37.491C66.3504 37.491 66.0587 37.414 65.8021 37.26C65.5454 37.106 65.3447 36.8914 65.2001 36.616C65.0554 36.336 64.9831 36.0117 64.9831 35.643C64.9831 35.2697 65.0531 34.9454 65.1931 34.67C65.3377 34.3947 65.5384 34.18 65.7951 34.026C66.0564 33.872 66.3551 33.795 66.6911 33.795C67.0364 33.795 67.3304 33.872 67.5731 34.026C67.8158 34.18 68.0001 34.383 68.1261 34.635C68.2567 34.8824 68.3221 35.1554 68.3221 35.454C68.3221 35.5007 68.3221 35.5497 68.3221 35.601C68.3221 35.6524 68.3197 35.7107 68.3151 35.776H65.4241V35.321H67.7411C67.7271 34.999 67.6197 34.747 67.4191 34.565C67.2231 34.383 66.9757 34.292 66.6771 34.292C66.4811 34.292 66.2967 34.3387 66.1241 34.432C65.9514 34.5207 65.8137 34.6537 65.7111 34.831C65.6084 35.0037 65.5571 35.2207 65.5571 35.482V35.678C65.5571 35.9674 65.6084 36.21 65.7111 36.406C65.8184 36.602 65.9561 36.749 66.1241 36.847C66.2967 36.945 66.4811 36.994 66.6771 36.994C66.9244 36.994 67.1274 36.9404 67.2861 36.833C67.4494 36.721 67.5684 36.5694 67.6431 36.378H68.2241C68.1634 36.5927 68.0631 36.784 67.9231 36.952C67.7831 37.1154 67.6081 37.246 67.3981 37.344C67.1927 37.442 66.9524 37.491 66.6771 37.491Z" fill="white"></path><path d="M69.1086 37.407V33.879H69.6406L69.6756 34.383C69.7876 34.201 69.9369 34.0587 70.1236 33.956C70.3149 33.8487 70.5226 33.795 70.7466 33.795C70.9286 33.795 71.0919 33.8207 71.2366 33.872C71.3859 33.9187 71.5166 33.9934 71.6286 34.096C71.7453 34.194 71.8363 34.32 71.9016 34.474C72.0229 34.2594 72.1909 34.0937 72.4056 33.977C72.6203 33.8557 72.8466 33.795 73.0846 33.795C73.3599 33.795 73.5979 33.851 73.7986 33.963C73.9993 34.0704 74.1556 34.236 74.2676 34.46C74.3796 34.6794 74.4356 34.9594 74.4356 35.3V37.407H73.8546V35.363C73.8546 35.0084 73.7823 34.7424 73.6376 34.565C73.4929 34.3877 73.2876 34.299 73.0216 34.299C72.8396 34.299 72.6763 34.348 72.5316 34.446C72.3869 34.5394 72.2726 34.677 72.1886 34.859C72.1046 35.041 72.0626 35.265 72.0626 35.531V37.407H71.4746V35.363C71.4746 35.0084 71.4023 34.7424 71.2576 34.565C71.1129 34.3877 70.9099 34.299 70.6486 34.299C70.4713 34.299 70.3103 34.348 70.1656 34.446C70.0209 34.5394 69.9066 34.677 69.8226 34.859C69.7386 35.041 69.6966 35.265 69.6966 35.531V37.407H69.1086Z" fill="white"></path><path d="M77.191 37.491C76.9903 37.491 76.8083 37.463 76.645 37.407C76.4863 37.3464 76.3463 37.267 76.225 37.169C76.1036 37.071 76.0033 36.9567 75.924 36.826L75.875 37.407H75.343V32.367H75.931V34.46C76.043 34.278 76.204 34.1217 76.414 33.991C76.624 33.8604 76.883 33.795 77.191 33.795C77.5363 33.795 77.835 33.8767 78.087 34.04C78.3436 34.1987 78.542 34.418 78.682 34.698C78.8266 34.9734 78.899 35.2884 78.899 35.643C78.899 35.9977 78.8266 36.315 78.682 36.595C78.542 36.875 78.3436 37.0944 78.087 37.253C77.8303 37.4117 77.5316 37.491 77.191 37.491ZM77.121 36.98C77.3543 36.98 77.5596 36.924 77.737 36.812C77.9143 36.7 78.052 36.546 78.15 36.35C78.2526 36.1494 78.304 35.9137 78.304 35.643C78.304 35.377 78.2526 35.1437 78.15 34.943C78.052 34.7424 77.9143 34.586 77.737 34.474C77.5596 34.362 77.3543 34.306 77.121 34.306C76.8876 34.306 76.6823 34.362 76.505 34.474C76.3276 34.586 76.19 34.7424 76.092 34.943C75.994 35.1437 75.945 35.377 75.945 35.643C75.945 35.9137 75.994 36.1494 76.092 36.35C76.19 36.546 76.3276 36.7 76.505 36.812C76.6823 36.924 76.8876 36.98 77.121 36.98Z" fill="white"></path><path d="M81.2786 37.491C80.952 37.491 80.6603 37.414 80.4036 37.26C80.147 37.106 79.9463 36.8914 79.8016 36.616C79.657 36.336 79.5846 36.0117 79.5846 35.643C79.5846 35.2697 79.6546 34.9454 79.7946 34.67C79.9393 34.3947 80.14 34.18 80.3966 34.026C80.658 33.872 80.9566 33.795 81.2926 33.795C81.638 33.795 81.932 33.872 82.1746 34.026C82.4173 34.18 82.6016 34.383 82.7276 34.635C82.8583 34.8824 82.9236 35.1554 82.9236 35.454C82.9236 35.5007 82.9236 35.5497 82.9236 35.601C82.9236 35.6524 82.9213 35.7107 82.9166 35.776H80.0256V35.321H82.3426C82.3286 34.999 82.2213 34.747 82.0206 34.565C81.8246 34.383 81.5773 34.292 81.2786 34.292C81.0826 34.292 80.8983 34.3387 80.7256 34.432C80.553 34.5207 80.4153 34.6537 80.3126 34.831C80.21 35.0037 80.1586 35.2207 80.1586 35.482V35.678C80.1586 35.9674 80.21 36.21 80.3126 36.406C80.42 36.602 80.5576 36.749 80.7256 36.847C80.8983 36.945 81.0826 36.994 81.2786 36.994C81.526 36.994 81.729 36.9404 81.8876 36.833C82.051 36.721 82.17 36.5694 82.2446 36.378H82.8256C82.765 36.5927 82.6646 36.784 82.5246 36.952C82.3846 37.1154 82.2096 37.246 81.9996 37.344C81.7943 37.442 81.554 37.491 81.2786 37.491Z" fill="white"></path><path d="M83.7102 37.407V33.879H84.2422L84.2842 34.551C84.3635 34.3924 84.4638 34.257 84.5852 34.145C84.7112 34.033 84.8605 33.9467 85.0332 33.886C85.2105 33.8254 85.4112 33.795 85.6352 33.795V34.411H85.4182C85.2688 34.411 85.1265 34.432 84.9912 34.474C84.8558 34.5114 84.7345 34.5744 84.6272 34.663C84.5245 34.7517 84.4428 34.873 84.3822 35.027C84.3262 35.1764 84.2982 35.363 84.2982 35.587V37.407H83.7102Z" fill="white"></path><path d="M87.631 37.491C87.3416 37.491 87.0873 37.442 86.868 37.344C86.6486 37.246 86.4736 37.1107 86.343 36.938C86.217 36.7607 86.14 36.553 86.112 36.315H86.714C86.7373 36.4364 86.7863 36.5484 86.861 36.651C86.9356 36.7537 87.036 36.8377 87.162 36.903C87.2926 36.9637 87.4513 36.994 87.638 36.994C87.8013 36.994 87.9366 36.9707 88.044 36.924C88.1513 36.8727 88.2306 36.805 88.282 36.721C88.338 36.637 88.366 36.546 88.366 36.448C88.366 36.3034 88.331 36.1937 88.261 36.119C88.1956 36.0444 88.0976 35.986 87.967 35.944C87.8363 35.8974 87.6776 35.8577 87.491 35.825C87.337 35.797 87.1853 35.7597 87.036 35.713C86.8867 35.6664 86.7536 35.6057 86.637 35.531C86.5203 35.4517 86.427 35.356 86.357 35.244C86.2916 35.132 86.259 34.9944 86.259 34.831C86.259 34.6304 86.3103 34.453 86.413 34.299C86.5203 34.1404 86.6696 34.0167 86.861 33.928C87.0523 33.8394 87.2763 33.795 87.533 33.795C87.911 33.795 88.2166 33.886 88.45 34.068C88.6833 34.25 88.821 34.5137 88.863 34.859H88.282C88.2586 34.6817 88.1816 34.544 88.051 34.446C87.925 34.3434 87.75 34.292 87.526 34.292C87.3066 34.292 87.1386 34.3364 87.022 34.425C86.91 34.5137 86.854 34.6304 86.854 34.775C86.854 34.8684 86.8843 34.9524 86.945 35.027C87.0103 35.097 87.106 35.1577 87.232 35.209C87.358 35.2604 87.5096 35.3024 87.687 35.335C87.9203 35.377 88.1326 35.433 88.324 35.503C88.5153 35.573 88.6693 35.678 88.786 35.818C88.9073 35.9534 88.968 36.147 88.968 36.399C88.968 36.6184 88.912 36.8097 88.8 36.973C88.6926 37.1364 88.5386 37.2647 88.338 37.358C88.1373 37.4467 87.9016 37.491 87.631 37.491Z" fill="white"></path><path d="M91.709 37.407V32.507H94.74V32.99H92.297V34.698H94.53V35.174H92.297V36.924H94.74V37.407H91.709Z" fill="white"></path><path d="M97.018 37.407C96.808 37.407 96.626 37.3744 96.472 37.309C96.318 37.2437 96.199 37.134 96.115 36.98C96.0357 36.8214 95.996 36.609 95.996 36.343V34.376H95.38V33.879H95.996L96.073 33.025H96.584V33.879H97.606V34.376H96.584V36.343C96.584 36.5624 96.6284 36.7117 96.717 36.791C96.8057 36.8657 96.962 36.903 97.186 36.903H97.564V37.407H97.018Z" fill="white"></path><path d="M98.3732 37.407V32.367H98.9612V34.474C99.0779 34.264 99.2412 34.0984 99.4512 33.977C99.6659 33.8557 99.8992 33.795 100.151 33.795C100.422 33.795 100.658 33.851 100.858 33.963C101.059 34.0704 101.213 34.236 101.32 34.46C101.428 34.684 101.481 34.9664 101.481 35.307V37.407H100.9V35.37C100.9 35.0154 100.826 34.7494 100.676 34.572C100.527 34.39 100.31 34.299 100.025 34.299C99.8246 34.299 99.6426 34.348 99.4792 34.446C99.3206 34.544 99.1946 34.684 99.1012 34.866C99.0079 35.048 98.9612 35.272 98.9612 35.538V37.407H98.3732Z" fill="white"></path><path d="M102.456 37.407V33.879H103.044V37.407H102.456ZM102.75 33.13C102.633 33.13 102.535 33.0927 102.456 33.018C102.381 32.9387 102.344 32.8407 102.344 32.724C102.344 32.6074 102.381 32.514 102.456 32.444C102.535 32.3694 102.633 32.332 102.75 32.332C102.862 32.332 102.957 32.3694 103.037 32.444C103.116 32.514 103.156 32.6074 103.156 32.724C103.156 32.8407 103.116 32.9387 103.037 33.018C102.957 33.0927 102.862 33.13 102.75 33.13Z" fill="white"></path><path d="M105.67 37.491C105.339 37.491 105.04 37.414 104.774 37.26C104.513 37.106 104.308 36.8914 104.158 36.616C104.009 36.336 103.934 36.014 103.934 35.65C103.934 35.2767 104.009 34.9524 104.158 34.677C104.308 34.4017 104.513 34.187 104.774 34.033C105.04 33.8744 105.339 33.795 105.67 33.795C106.09 33.795 106.44 33.9047 106.72 34.124C107 34.3387 107.178 34.628 107.252 34.992H106.65C106.604 34.7727 106.489 34.6024 106.307 34.481C106.125 34.3597 105.911 34.299 105.663 34.299C105.463 34.299 105.276 34.3504 105.103 34.453C104.935 34.551 104.798 34.7004 104.69 34.901C104.588 35.1017 104.536 35.349 104.536 35.643C104.536 35.8624 104.567 36.0584 104.627 36.231C104.688 36.399 104.77 36.539 104.872 36.651C104.975 36.763 105.094 36.8494 105.229 36.91C105.369 36.966 105.514 36.994 105.663 36.994C105.831 36.994 105.983 36.9684 106.118 36.917C106.254 36.861 106.368 36.7794 106.461 36.672C106.555 36.5647 106.618 36.4387 106.65 36.294H107.252C107.178 36.6487 106.998 36.938 106.713 37.162C106.433 37.3814 106.086 37.491 105.67 37.491Z" fill="white"></path><path d="M109.235 37.491C108.95 37.491 108.712 37.442 108.521 37.344C108.33 37.2414 108.187 37.1084 108.094 36.945C108.001 36.777 107.954 36.595 107.954 36.399C107.954 36.161 108.015 35.9604 108.136 35.797C108.262 35.629 108.437 35.503 108.661 35.419C108.89 35.3304 109.158 35.286 109.466 35.286H110.397C110.397 35.0667 110.362 34.8847 110.292 34.74C110.227 34.5907 110.129 34.4787 109.998 34.404C109.872 34.3294 109.713 34.292 109.522 34.292C109.298 34.292 109.104 34.348 108.941 34.46C108.778 34.572 108.677 34.7377 108.64 34.957H108.038C108.066 34.705 108.15 34.495 108.29 34.327C108.435 34.1544 108.617 34.0237 108.836 33.935C109.055 33.8417 109.284 33.795 109.522 33.795C109.849 33.795 110.119 33.8557 110.334 33.977C110.553 34.0937 110.717 34.2594 110.824 34.474C110.931 34.684 110.985 34.9337 110.985 35.223V37.407H110.46L110.425 36.784C110.378 36.882 110.318 36.9754 110.243 37.064C110.173 37.148 110.089 37.2227 109.991 37.288C109.898 37.3487 109.788 37.3977 109.662 37.435C109.536 37.4724 109.394 37.491 109.235 37.491ZM109.326 36.994C109.489 36.994 109.636 36.9614 109.767 36.896C109.902 36.826 110.017 36.7327 110.11 36.616C110.203 36.4947 110.273 36.3617 110.32 36.217C110.371 36.0724 110.397 35.9207 110.397 35.762V35.741H109.515C109.286 35.741 109.102 35.769 108.962 35.825C108.822 35.8764 108.722 35.951 108.661 36.049C108.6 36.1424 108.57 36.2497 108.57 36.371C108.57 36.497 108.598 36.6067 108.654 36.7C108.715 36.7934 108.801 36.8657 108.913 36.917C109.03 36.9684 109.167 36.994 109.326 36.994Z" fill="white"></path><path d="M111.895 37.407V32.367H112.483V37.407H111.895Z" fill="white"></path><path d="M116.496 37.407V32.99H115.033V32.507H118.547V32.99H117.084V37.407H116.496Z" fill="white"></path><path d="M119.865 37.491C119.58 37.491 119.342 37.442 119.151 37.344C118.96 37.2414 118.817 37.1084 118.724 36.945C118.631 36.777 118.584 36.595 118.584 36.399C118.584 36.161 118.645 35.9604 118.766 35.797C118.892 35.629 119.067 35.503 119.291 35.419C119.52 35.3304 119.788 35.286 120.096 35.286H121.027C121.027 35.0667 120.992 34.8847 120.922 34.74C120.857 34.5907 120.759 34.4787 120.628 34.404C120.502 34.3294 120.343 34.292 120.152 34.292C119.928 34.292 119.734 34.348 119.571 34.46C119.408 34.572 119.307 34.7377 119.27 34.957H118.668C118.696 34.705 118.78 34.495 118.92 34.327C119.065 34.1544 119.247 34.0237 119.466 33.935C119.685 33.8417 119.914 33.795 120.152 33.795C120.479 33.795 120.749 33.8557 120.964 33.977C121.183 34.0937 121.347 34.2594 121.454 34.474C121.561 34.684 121.615 34.9337 121.615 35.223V37.407H121.09L121.055 36.784C121.008 36.882 120.948 36.9754 120.873 37.064C120.803 37.148 120.719 37.2227 120.621 37.288C120.528 37.3487 120.418 37.3977 120.292 37.435C120.166 37.4724 120.024 37.491 119.865 37.491ZM119.956 36.994C120.119 36.994 120.266 36.9614 120.397 36.896C120.532 36.826 120.647 36.7327 120.74 36.616C120.833 36.4947 120.903 36.3617 120.95 36.217C121.001 36.0724 121.027 35.9207 121.027 35.762V35.741H120.145C119.916 35.741 119.732 35.769 119.592 35.825C119.452 35.8764 119.352 35.951 119.291 36.049C119.23 36.1424 119.2 36.2497 119.2 36.371C119.2 36.497 119.228 36.6067 119.284 36.7C119.345 36.7934 119.431 36.8657 119.543 36.917C119.66 36.9684 119.797 36.994 119.956 36.994Z" fill="white"></path><path d="M124.086 37.491C123.745 37.491 123.444 37.4117 123.183 37.253C122.926 37.0897 122.728 36.868 122.588 36.588C122.448 36.308 122.378 35.9907 122.378 35.636C122.378 35.2814 122.448 34.9664 122.588 34.691C122.728 34.411 122.926 34.1917 123.183 34.033C123.444 33.8744 123.747 33.795 124.093 33.795C124.377 33.795 124.627 33.8534 124.842 33.97C125.061 34.0867 125.231 34.25 125.353 34.46V32.367H125.941V37.407H125.409L125.353 36.826C125.278 36.9427 125.182 37.0524 125.066 37.155C124.949 37.253 124.809 37.3347 124.646 37.4C124.487 37.4607 124.3 37.491 124.086 37.491ZM124.149 36.98C124.382 36.98 124.587 36.924 124.765 36.812C124.942 36.7 125.08 36.546 125.178 36.35C125.28 36.1494 125.332 35.9137 125.332 35.643C125.332 35.377 125.28 35.1437 125.178 34.943C125.08 34.7424 124.942 34.586 124.765 34.474C124.587 34.362 124.382 34.306 124.149 34.306C123.925 34.306 123.722 34.362 123.54 34.474C123.362 34.586 123.225 34.7424 123.127 34.943C123.029 35.1437 122.98 35.377 122.98 35.643C122.98 35.9137 123.029 36.1494 123.127 36.35C123.225 36.546 123.362 36.7 123.54 36.812C123.722 36.924 123.925 36.98 124.149 36.98Z" fill="white"></path><path d="M128.46 37.491C128.134 37.491 127.842 37.414 127.585 37.26C127.329 37.106 127.128 36.8914 126.983 36.616C126.839 36.336 126.766 36.0117 126.766 35.643C126.766 35.2697 126.836 34.9454 126.976 34.67C127.121 34.3947 127.322 34.18 127.578 34.026C127.84 33.872 128.138 33.795 128.474 33.795C128.82 33.795 129.114 33.872 129.356 34.026C129.599 34.18 129.783 34.383 129.909 34.635C130.04 34.8824 130.105 35.1554 130.105 35.454C130.105 35.5007 130.105 35.5497 130.105 35.601C130.105 35.6524 130.103 35.7107 130.098 35.776H127.207V35.321H129.524C129.51 34.999 129.403 34.747 129.202 34.565C129.006 34.383 128.759 34.292 128.46 34.292C128.264 34.292 128.08 34.3387 127.907 34.432C127.735 34.5207 127.597 34.6537 127.494 34.831C127.392 35.0037 127.34 35.2207 127.34 35.482V35.678C127.34 35.9674 127.392 36.21 127.494 36.406C127.602 36.602 127.739 36.749 127.907 36.847C128.08 36.945 128.264 36.994 128.46 36.994C128.708 36.994 128.911 36.9404 129.069 36.833C129.233 36.721 129.352 36.5694 129.426 36.378H130.007C129.947 36.5927 129.846 36.784 129.706 36.952C129.566 37.1154 129.391 37.246 129.181 37.344C128.976 37.442 128.736 37.491 128.46 37.491Z" fill="white"></path><path d="M132.471 37.407L134.277 32.507H134.9L136.699 37.407H136.076L134.585 33.242L133.087 37.407H132.471ZM133.297 36.147L133.465 35.671H135.684L135.852 36.147H133.297Z" fill="white"></path><path d="M138.605 37.491C138.335 37.491 138.097 37.4374 137.891 37.33C137.691 37.2227 137.534 37.057 137.422 36.833C137.315 36.609 137.261 36.329 137.261 35.993V33.879H137.849V35.93C137.849 36.28 137.926 36.5437 138.08 36.721C138.234 36.8984 138.451 36.987 138.731 36.987C138.927 36.987 139.105 36.9404 139.263 36.847C139.422 36.749 139.546 36.6114 139.634 36.434C139.728 36.252 139.774 36.028 139.774 35.762V33.879H140.362V37.407H139.83L139.795 36.791C139.688 37.0104 139.529 37.183 139.319 37.309C139.109 37.4304 138.871 37.491 138.605 37.491Z" fill="white"></path><path d="M142.898 37.491C142.557 37.491 142.256 37.4117 141.995 37.253C141.738 37.0897 141.54 36.868 141.4 36.588C141.26 36.308 141.19 35.9907 141.19 35.636C141.19 35.2814 141.26 34.9664 141.4 34.691C141.54 34.411 141.738 34.1917 141.995 34.033C142.256 33.8744 142.56 33.795 142.905 33.795C143.19 33.795 143.439 33.8534 143.654 33.97C143.873 34.0867 144.044 34.25 144.165 34.46V32.367H144.753V37.407H144.221L144.165 36.826C144.09 36.9427 143.995 37.0524 143.878 37.155C143.761 37.253 143.621 37.3347 143.458 37.4C143.299 37.4607 143.113 37.491 142.898 37.491ZM142.961 36.98C143.194 36.98 143.4 36.924 143.577 36.812C143.754 36.7 143.892 36.546 143.99 36.35C144.093 36.1494 144.144 35.9137 144.144 35.643C144.144 35.377 144.093 35.1437 143.99 34.943C143.892 34.7424 143.754 34.586 143.577 34.474C143.4 34.362 143.194 34.306 142.961 34.306C142.737 34.306 142.534 34.362 142.352 34.474C142.175 34.586 142.037 34.7424 141.939 34.943C141.841 35.1437 141.792 35.377 141.792 35.643C141.792 35.9137 141.841 36.1494 141.939 36.35C142.037 36.546 142.175 36.7 142.352 36.812C142.534 36.924 142.737 36.98 142.961 36.98Z" fill="white"></path><path d="M145.782 37.407V33.879H146.37V37.407H145.782ZM146.076 33.13C145.959 33.13 145.861 33.0927 145.782 33.018C145.707 32.9387 145.67 32.8407 145.67 32.724C145.67 32.6074 145.707 32.514 145.782 32.444C145.861 32.3694 145.959 32.332 146.076 32.332C146.188 32.332 146.283 32.3694 146.363 32.444C146.442 32.514 146.482 32.6074 146.482 32.724C146.482 32.8407 146.442 32.9387 146.363 33.018C146.283 33.0927 146.188 33.13 146.076 33.13Z" fill="white"></path><path d="M148.793 37.407C148.583 37.407 148.401 37.3744 148.247 37.309C148.093 37.2437 147.974 37.134 147.89 36.98C147.811 36.8214 147.771 36.609 147.771 36.343V34.376H147.155V33.879H147.771L147.848 33.025H148.359V33.879H149.381V34.376H148.359V36.343C148.359 36.5624 148.404 36.7117 148.492 36.791C148.581 36.8657 148.737 36.903 148.961 36.903H149.339V37.407H148.793Z" fill="white"></path></svg>