<svg xmlns="http://www.w3.org/2000/svg" width="32" height="33" viewBox="0 0 32 33" fill="none"><path d="M15.9678 32.6237C13.8075 32.6237 11.7669 32.2076 9.84609 31.3754C7.92498 30.5431 6.24761 29.4101 4.814 27.9762C3.38011 26.5426 2.24706 24.8626 1.41484 22.9362C0.582615 21.0098 0.166504 18.9612 0.166504 16.7904C0.166504 14.5918 0.593865 12.5293 1.44859 10.6029C2.30331 8.67648 3.46414 7.00078 4.93109 5.57578C6.39775 4.1505 8.11359 3.02439 10.0786 2.19745C12.0433 1.3705 14.1389 0.957031 16.3653 0.957031C18.4486 0.957031 20.4229 1.31231 22.2882 2.02287C24.1537 2.73342 25.7921 3.71689 27.2032 4.97328C28.6146 6.22967 29.739 7.72273 30.5765 9.45245C31.4143 11.1819 31.8332 13.0573 31.8332 15.0787C31.8332 17.9634 30.9758 20.2198 29.2611 21.8479C27.5464 23.4762 25.3482 24.2904 22.6665 24.2904H19.6473C19.1729 24.2904 18.7936 24.4452 18.5094 24.7549C18.2253 25.0649 18.0832 25.4315 18.0832 25.8545C18.0832 26.3695 18.2915 26.9048 18.7082 27.4604C19.1248 28.0159 19.3332 28.6537 19.3332 29.3737C19.3332 30.474 19.0287 31.2908 18.4198 31.8241C17.8107 32.3572 16.9933 32.6237 15.9678 32.6237ZM6.83317 18.0404C7.42706 18.0404 7.92275 17.8416 8.32025 17.4441C8.71775 17.0466 8.9165 16.5509 8.9165 15.957C8.9165 15.3631 8.71775 14.8674 8.32025 14.4699C7.92275 14.0724 7.42706 13.8737 6.83317 13.8737C6.23928 13.8737 5.74359 14.0724 5.34609 14.4699C4.94859 14.8674 4.74984 15.3631 4.74984 15.957C4.74984 16.5509 4.94859 17.0466 5.34609 17.4441C5.74359 17.8416 6.23928 18.0404 6.83317 18.0404ZM11.8332 11.3737C12.4271 11.3737 12.9228 11.1749 13.3203 10.7774C13.7178 10.3799 13.9165 9.88425 13.9165 9.29036C13.9165 8.69648 13.7178 8.20078 13.3203 7.80328C12.9228 7.40578 12.4271 7.20703 11.8332 7.20703C11.2393 7.20703 10.7436 7.40578 10.3461 7.80328C9.94859 8.20078 9.74984 8.69648 9.74984 9.29036C9.74984 9.88425 9.94859 10.3799 10.3461 10.7774C10.7436 11.1749 11.2393 11.3737 11.8332 11.3737ZM20.1665 11.3737C20.7604 11.3737 21.2561 11.1749 21.6536 10.7774C22.0511 10.3799 22.2498 9.88425 22.2498 9.29036C22.2498 8.69648 22.0511 8.20078 21.6536 7.80328C21.2561 7.40578 20.7604 7.20703 20.1665 7.20703C19.5726 7.20703 19.0769 7.40578 18.6794 7.80328C18.2819 8.20078 18.0832 8.69648 18.0832 9.29036C18.0832 9.88425 18.2819 10.3799 18.6794 10.7774C19.0769 11.1749 19.5726 11.3737 20.1665 11.3737ZM25.1665 18.0404C25.7604 18.0404 26.2561 17.8416 26.6536 17.4441C27.0511 17.0466 27.2498 16.5509 27.2498 15.957C27.2498 15.3631 27.0511 14.8674 26.6536 14.4699C26.2561 14.0724 25.7604 13.8737 25.1665 13.8737C24.5726 13.8737 24.0769 14.0724 23.6794 14.4699C23.2819 14.8674 23.0832 15.3631 23.0832 15.957C23.0832 16.5509 23.2819 17.0466 23.6794 17.4441C24.0769 17.8416 24.5726 18.0404 25.1665 18.0404ZM15.9678 30.1237C16.2391 30.1237 16.4512 30.0569 16.604 29.9233C16.7568 29.7897 16.8332 29.6065 16.8332 29.3737C16.8332 28.9848 16.6248 28.5479 16.2082 28.0629C15.7915 27.5779 15.5832 26.8183 15.5832 25.7841C15.5832 24.5961 15.9859 23.6334 16.7915 22.8962C17.5971 22.159 18.5832 21.7904 19.7498 21.7904H22.6665C24.6282 21.7904 26.2297 21.2156 27.4711 20.0662C28.7125 18.9165 29.3332 17.254 29.3332 15.0787C29.3332 11.707 28.0404 8.92717 25.4548 6.73912C22.8696 4.55106 19.8397 3.45703 16.3653 3.45703C12.5555 3.45703 9.31998 4.7487 6.65859 7.33203C3.9972 9.91536 2.6665 13.0681 2.6665 16.7904C2.6665 20.4848 3.96512 23.6306 6.56234 26.2279C9.15956 28.8251 12.2947 30.1237 15.9678 30.1237Z" fill="#2A7D7D"></path></svg>