<svg xmlns="http://www.w3.org/2000/svg" width="31" height="31" viewBox="0 0 31 31" fill="none"><path d="M14.331 6.88932V3.55599C14.331 2.62266 14.6532 1.83377 15.2977 1.18932C15.9421 0.544879 16.731 0.222656 17.6643 0.222656H20.9972V3.55599C20.9972 4.48932 20.6752 5.27821 20.031 5.92266C19.3866 6.5671 18.5977 6.88932 17.6643 6.88932H14.331ZM5.671 16.0556C4.28822 16.0556 3.1103 15.569 2.13725 14.596C1.16391 13.6227 0.677246 12.4446 0.677246 11.0618V6.05599H5.68308C7.06586 6.05599 8.24391 6.54265 9.21725 7.51599C10.1906 8.48904 10.6772 9.66696 10.6772 11.0497V16.0556H5.671ZM21.6706 30.2064C20.6328 30.2064 19.6416 30.0397 18.6968 29.7064C17.7521 29.3731 16.8982 28.9147 16.1352 28.3314L14.2156 30.2514C13.9847 30.482 13.6946 30.6 13.3452 30.6056C12.996 30.6108 12.7006 30.4928 12.4589 30.2514C12.2175 30.0097 12.0995 29.7143 12.1047 29.3652C12.1103 29.0157 12.2284 28.7256 12.4589 28.4947L14.3789 26.5752C13.7956 25.8121 13.3372 24.9582 13.0039 24.0135C12.6706 23.0688 12.5039 22.0775 12.5039 21.0397C12.5039 18.497 13.3952 16.3292 15.1777 14.5364C16.9599 12.7439 19.1242 11.8477 21.6706 11.8477H30.8468V21.0397C30.8468 23.5825 29.9521 25.746 28.1627 27.5302C26.3729 29.3143 24.2089 30.2064 21.6706 30.2064ZM21.6706 27.7064C23.5317 27.7064 25.1011 27.0536 26.3789 25.7481C27.6567 24.4425 28.2956 22.8731 28.2956 21.0397V14.3731H21.6706C19.8372 14.3731 18.2678 15.0189 16.9622 16.3106C15.6567 17.6022 15.0039 19.1786 15.0039 21.0397C15.0039 21.7428 15.1043 22.4111 15.3052 23.0447C15.506 23.6781 15.7913 24.2609 16.161 24.7931L20.7922 20.1614C21.0339 19.92 21.3267 19.7993 21.6706 19.7993C22.0145 19.7993 22.3072 19.92 22.5489 20.1614C22.7903 20.4031 22.911 20.6959 22.911 21.0397C22.911 21.3836 22.7903 21.6764 22.5489 21.9181L17.9172 26.5493C18.4495 26.919 19.031 27.2043 19.6618 27.4052C20.2929 27.606 20.9625 27.7064 21.6706 27.7064Z" fill="#2A7D7D"></path></svg>