<svg xmlns="http://www.w3.org/2000/svg" width="199" height="196" viewBox="0 0 199 196" fill="none"><mask id="mask0_2037_12998" style="mask-type:alpha" maskUnits="userSpaceOnUse" x="0" y="0" width="260" height="260"><rect width="260" height="260" fill="#D9D9D9"></rect></mask><g mask="url(#mask0_2037_12998)"><path d="M97.7143 230L79.6307 199.501L45.2159 192.083L48.5905 156.582L25.3828 130L48.5905 103.417L45.2159 67.9167L79.6307 60.4985L97.7143 30L129.965 43.6256L162.216 30L180.299 60.4985L214.714 67.9167L211.34 103.417L234.547 130L211.34 156.582L214.714 192.083L180.299 199.501L162.216 230L129.965 216.374L97.7143 230ZM102.34 216.125L129.965 204.625L157.715 216.125L173.298 190.125L203.09 183.5L200.382 152.75L220.423 130L200.382 107.125L203.09 76.3748L173.298 69.8748L157.59 43.8748L129.965 55.3744L102.216 43.8748L86.6318 69.8748L56.8401 76.3748L59.5484 107.125L39.5068 130L59.5484 152.75L56.8401 183.625L86.6318 190.125L102.34 216.125ZM118.59 160.959L172.299 107.25L164.632 99.4579L118.59 145.5L95.2984 122.333L87.6311 130L118.59 160.959Z" fill="url(#paint0_linear_2037_12998)" fill-opacity="0.4"></path></g><defs><linearGradient id="paint0_linear_2037_12998" x1="233.992" y1="222.62" x2="25.9922" y2="48.7446" gradientUnits="userSpaceOnUse"><stop stop-color="#2A7D7D"></stop><stop offset="1" stop-color="#0FC3C3"></stop></linearGradient></defs></svg>